<svg xmlns="http://www.w3.org/2000/svg" viewBox="0 0 24 24" width="24" height="24">
  <path d="M12 2.163c3.204 0 3.584.012 4.85.07 1.366.062 2.633.334 3.608 1.31.975.975 1.248 2.242 1.31 3.608.058 1.266.07 1.646.07 4.85s-.012 3.584-.07 4.85c-.062 1.366-.334 2.633-1.31 3.608-.975.975-2.242 1.248-3.608 1.31-1.266.058-1.646.07-4.85.07s-3.584-.012-4.85-.07c-1.366-.062-2.633-.334-3.608-1.31-.975-.975-1.248-2.242-1.31-3.608-.058-1.266-.07-1.646-.07-4.85s.012-3.584.07-4.85c.062-1.366.334-2.633 1.31-3.608.975-.975 2.242-1.248 3.608-1.31 1.266-.058 1.646-.07 4.85-.07M12 0C8.741 0 8.332.014 7.052.072 5.773.13 4.615.396 3.608 1.403 2.601 2.41 2.335 3.568 2.277 4.848 2.219 6.128 2.205 6.537 2.205 9.795s.014 3.667.072 4.947c.058 1.28.324 2.438 1.331 3.445.975.975 2.242 1.248 3.608 1.31 1.266.058 1.646.07 4.85.07s3.584-.012 4.85-.07c1.366-.062 2.633-.334 3.608-1.31.975-.975 1.248-2.242 1.31-3.608.058-1.266.07-1.646.07-4.85s-.012-3.584-.07-4.85c-.062-1.366-.334-2.633-1.31-3.608-.975-.975-2.242-1.248-3.608-1.31-1.266-.058-1.646-.07-4.85-.07zM12 5.838c-3.403 0-6.162 2.759-6.162 6.162s2.759 6.162 6.162 6.162 6.162-2.759 6.162-6.162-2.759-6.162-6.162-6.162zm0 10.162c-2.207 0-4-1.793-4-4s1.793-4 4-4 4 1.793 4 4-1.793 4-4 4zm6.406-11.845c-.796 0-1.441.645-1.441 1.441s.645 1.441 1.441 1.441 1.441-.645 1.441-1.441-.645-1.441-1.441-1.441z" fill="currentColor"/>
</svg>
