<svg xmlns="http://www.w3.org/2000/svg" xmlns:xlink="http://www.w3.org/1999/xlink" width="48"
    zoomAndPan="magnify" viewBox="0 0 375 374.999991" height="48"
    preserveAspectRatio="xMidYMid meet" version="1.0">
    <path fill="currentColor"
        d="M 181.394531 3.324219 L 182.320312 3.324219 C 182.960938 3.324219 183.605469 3.324219 184.246094 3.328125 C 185.222656 3.328125 186.199219 3.328125 187.175781 3.324219 C 187.800781 3.324219 188.429688 3.324219 189.058594 3.324219 L 189.929688 3.324219 C 191.777344 3.332031 193.542969 3.503906 195.375 3.75 C 195.984375 3.785156 196.597656 3.816406 197.207031 3.828125 C 201.925781 3.972656 206.476562 4.453125 211.125 5.25 C 211.730469 5.347656 212.332031 5.449219 212.933594 5.546875 C 214.074219 5.734375 215.214844 5.925781 216.355469 6.117188 C 217.28125 6.277344 218.207031 6.425781 219.136719 6.574219 C 221.335938 6.917969 223.515625 7.375 225.667969 7.9375 C 226.503906 8.152344 227.339844 8.363281 228.175781 8.5625 C 234.617188 10.121094 241 11.90625 247.167969 14.347656 C 248.171875 14.742188 249.183594 15.113281 250.195312 15.488281 C 261.605469 19.710938 273.734375 25.09375 283.632812 32.289062 C 284.933594 33.222656 286.265625 34.105469 287.601562 34.992188 L 288.34375 35.484375 L 290.25 36.75 L 291.375 37.5 L 291.375 38.25 L 292.019531 38.355469 C 293.078125 38.6875 293.726562 39.214844 294.585938 39.914062 C 295.503906 40.652344 296.394531 41.34375 297.375 42 L 297.375 42.75 L 298.144531 42.984375 C 299.628906 43.675781 300.707031 44.667969 301.921875 45.75 C 302.382812 46.15625 302.84375 46.5625 303.308594 46.96875 C 303.511719 47.148438 303.710938 47.328125 303.921875 47.511719 C 304.566406 48.074219 304.566406 48.074219 305.625 48.75 L 305.625 49.5 L 306.375 49.5 L 306.375 50.25 L 307.125 50.25 L 307.125 51 L 307.953125 51.269531 C 309.167969 51.828125 309.84375 52.492188 310.757812 53.460938 C 311.828125 54.636719 311.828125 54.636719 313.125 55.5 L 313.125 56.25 L 313.875 56.25 L 313.875 57 L 314.625 57 L 314.625 57.75 L 315.375 57.75 L 315.375 58.5 L 316.125 58.5 L 316.125 59.25 L 316.875 59.25 C 317.457031 59.839844 317.457031 59.839844 318.117188 60.632812 C 318.910156 61.574219 319.703125 62.464844 320.601562 63.304688 L 321.375 64.125 L 321.375 65.25 L 322.125 65.25 L 322.125 66 L 322.875 66 C 323.441406 66.535156 323.441406 66.535156 324.046875 67.242188 L 324.660156 67.941406 L 325.125 68.625 L 325.125 69.75 L 325.875 69.75 L 325.875 70.5 L 326.625 70.5 L 326.625 71.25 L 327.375 71.25 C 328.171875 72.117188 328.171875 72.117188 328.875 73.125 L 328.875 74.25 L 329.625 74.25 L 329.625 75 L 330.375 75 L 331.125 76.125 L 331.125 77.25 L 331.875 77.25 L 331.875 78 L 332.625 78 L 333.375 79.125 L 333.375 80.25 L 334.125 80.25 L 334.125 81 L 334.875 81 L 335.625 83.25 L 336.375 83.25 L 337.125 84.375 L 337.125 85.5 L 337.875 85.5 L 338.625 86.625 L 338.625 87.75 L 339.375 87.75 L 340.125 88.875 L 340.125 90 L 340.875 90 L 340.875 91.5 L 341.625 91.5 L 342.375 92.625 L 342.375 93.75 L 343.125 93.75 C 344.296875 95.691406 344.296875 95.691406 344.625 96.375 L 344.625 97.5 L 345.375 97.5 L 345.375 99 L 346.125 99 L 346.125 100.5 L 346.875 100.5 L 348.328125 103.21875 L 348.742188 103.992188 C 349.007812 104.488281 349.269531 104.984375 349.53125 105.476562 C 349.800781 105.984375 350.070312 106.488281 350.34375 106.992188 C 350.722656 107.84375 350.675781 108.578125 350.625 109.5 L 351.375 109.5 L 351.375 111 L 352.125 111 L 352.125 112.5 L 352.875 112.5 L 352.875 114 L 353.625 114 C 354.226562 115.316406 354.457031 116.304688 354.375 117.75 L 355.125 117.75 L 355.125 119.25 L 355.875 119.25 L 355.875 121.5 L 356.625 121.5 L 356.625 123.75 L 357.375 123.75 L 357.375 125.25 L 358.125 125.25 L 358.125 127.5 L 358.875 127.5 L 358.875 129.75 L 359.625 129.75 L 359.625 132 L 360.375 132 L 360.375 135 L 361.125 135 L 361.125 137.25 L 361.875 137.25 L 361.875 140.25 L 362.625 140.25 L 362.625 143.25 L 363.375 143.25 L 363.375 146.25 L 364.125 146.25 L 364.125 149.25 L 364.875 149.25 C 365.5625 152.03125 365.714844 154.640625 365.625 157.5 L 366.375 157.5 C 367.101562 161.539062 367.207031 165.410156 367.125 169.5 L 367.875 169.5 C 368.800781 185.796875 368.800781 185.796875 368.625 192.375 L 368.589844 193.664062 C 368.296875 204.101562 368.296875 204.101562 367.875 207 L 367.5 207.375 C 367.421875 207.960938 367.359375 208.546875 367.3125 209.136719 L 367.21875 210.230469 L 367.125 211.382812 C 366.75 215.914062 366.75 215.914062 366.375 217.875 L 365.625 217.875 L 365.625 222.375 L 364.875 222.375 L 364.875 226.125 L 364.125 226.125 L 364.125 229.125 L 363.375 229.125 L 363.386719 229.851562 L 363.410156 231.726562 L 363.375 232.5 L 363 232.875 L 362.835938 234.046875 C 362.628906 235.480469 362.296875 236.746094 361.875 238.125 L 361.125 238.125 L 361.195312 239.273438 C 361.128906 240.628906 360.898438 241.414062 360.320312 242.617188 C 359.929688 243.542969 359.6875 244.46875 359.4375 245.4375 C 359.007812 247.089844 358.449219 248.570312 357.75 250.125 C 357.609375 250.621094 357.476562 251.121094 357.375 251.625 L 356.625 251.625 L 356.625 253.875 L 355.875 253.875 L 355.921875 254.695312 C 355.871094 255.828125 355.59375 256.601562 355.125 257.625 L 354.375 257.625 L 354.28125 258.5625 C 353.988281 259.929688 353.515625 260.933594 352.851562 262.152344 C 352.492188 262.886719 352.296875 263.578125 352.125 264.375 L 351.375 264.375 L 351.375 265.875 L 350.625 265.875 L 350.460938 266.742188 C 350.25 267.75 350.25 267.75 349.875 268.875 L 349.125 268.875 L 349.007812 269.648438 C 348.574219 271.5 347.75 273.195312 346.875 274.875 L 346.125 274.875 L 346.125 276.375 L 345.375 276.375 L 345.375 277.875 L 344.625 277.875 L 344.507812 278.484375 C 344.183594 279.609375 343.667969 280.589844 343.125 281.625 L 342.375 281.625 L 342.375 283.125 L 341.625 283.125 L 341.460938 283.828125 C 341.25 284.625 341.25 284.625 340.875 285.375 L 340.125 285.375 L 339.960938 286.078125 C 339.75 286.875 339.75 286.875 339.375 287.625 L 338.625 287.625 L 338.460938 288.328125 C 338.25 289.125 338.25 289.125 337.875 289.875 L 337.125 289.875 L 336.960938 290.578125 C 336.75 291.375 336.75 291.375 336.375 292.125 L 335.625 292.125 L 335.460938 292.828125 C 335.25 293.625 335.25 293.625 334.875 294.375 L 334.125 294.375 L 333.960938 295.078125 C 333.75 295.875 333.75 295.875 333.375 296.625 L 332.625 296.625 L 332.625 297.375 L 331.875 297.375 L 331.710938 298.078125 C 331.5 298.875 331.5 298.875 331.125 299.625 L 330.375 299.625 L 330.375 300.375 L 329.625 300.375 L 329.296875 301.242188 C 328.875 302.25 328.875 302.25 328.125 303.375 L 327.375 303.375 L 327.375 304.125 L 326.625 304.125 L 326.34375 304.945312 C 325.828125 306.101562 325.226562 306.941406 324.375 307.875 L 323.625 307.875 L 323.625 308.625 L 322.875 308.625 L 322.875 309.375 L 322.125 309.375 L 322.125 310.125 L 321.375 310.125 L 321.164062 310.898438 C 320.511719 312.230469 319.65625 313.035156 318.585938 314.042969 C 317.960938 314.601562 317.960938 314.601562 317.625 315.375 L 316.875 315.375 L 316.875 316.125 L 316.125 316.125 L 316.125 316.875 L 315.375 316.875 L 315.375 317.625 L 314.625 317.625 L 314.625 318.375 L 313.875 318.375 L 313.875 319.125 L 313.125 319.125 L 313.125 319.875 L 312.375 319.875 L 312.375 320.625 C 311.769531 321.234375 311.769531 321.234375 310.96875 321.914062 L 310.175781 322.59375 C 308.660156 323.835938 308.660156 323.835938 307.875 324.375 L 307.125 324.375 L 307.125 325.125 L 306.375 325.125 L 306.375 325.875 L 305.625 325.875 L 305.625 326.625 L 304.875 326.625 L 304.875 327.375 C 304.007812 328.171875 304.007812 328.171875 303 328.875 L 301.875 328.875 L 301.875 329.625 L 301.125 329.625 L 301.125 330.375 L 300.375 330.375 L 300.375 331.125 L 299.25 331.875 L 298.125 331.875 L 298.125 332.625 L 297.375 332.625 L 297.375 333.375 C 296.296875 334.171875 296.296875 334.171875 295.125 334.875 L 294.375 334.875 L 294.375 335.625 C 293.296875 336.421875 293.296875 336.421875 292.125 337.125 L 291.375 337.125 L 291.375 337.875 L 290.25 338.625 L 289.125 338.625 L 289.125 339.375 L 288 340.125 L 286.875 340.125 L 286.875 340.875 L 285.75 341.625 L 284.625 341.625 L 284.625 342.375 L 283.5 343.125 L 282.375 343.125 L 282.375 343.875 C 281.34375 344.671875 281.34375 344.671875 280.125 345.375 L 278.625 345.375 L 278.625 346.125 C 276.683594 347.296875 276.683594 347.296875 276 347.625 L 274.875 347.625 L 274.875 348.375 L 273.375 348.375 L 273.375 349.125 C 271.753906 349.996094 270.132812 350.863281 268.507812 351.722656 C 267.816406 352.089844 267.128906 352.457031 266.441406 352.824219 L 265.265625 353.4375 C 264.921875 353.621094 264.574219 353.800781 264.21875 353.988281 C 263.195312 354.398438 262.46875 354.453125 261.375 354.375 L 261.375 355.125 L 259.875 355.125 L 259.875 355.875 C 259.28125 356.128906 258.6875 356.378906 258.09375 356.625 L 257.089844 357.046875 C 256.125 357.375 256.125 357.375 254.625 357.375 L 254.625 358.125 C 253.308594 358.726562 252.320312 358.957031 250.875 358.875 L 250.875 359.625 L 250.148438 359.832031 C 248.667969 360.261719 247.25 360.695312 245.835938 361.3125 C 244.367188 361.929688 242.90625 362.316406 241.367188 362.714844 C 240.539062 362.953125 239.742188 363.257812 238.96875 363.632812 C 237.605469 364.183594 236.582031 364.214844 235.125 364.125 L 235.125 364.875 C 233.296875 365.472656 231.820312 365.703125 229.875 365.625 L 229.875 366.375 L 227.566406 366.632812 L 226.875 366.75 L 226.5 367.125 C 225.929688 367.152344 225.359375 367.15625 224.789062 367.148438 L 223.851562 367.136719 L 223.125 367.125 L 223.125 367.875 L 219.375 367.875 L 219.375 368.625 C 214.34375 369.574219 209.507812 370.398438 204.375 370.125 L 204.375 370.875 C 197.691406 371.617188 191.03125 371.699219 184.3125 371.695312 L 183.046875 371.695312 C 175.964844 371.695312 168.960938 371.519531 161.929688 370.617188 L 161.179688 370.523438 C 157.085938 370.003906 153.023438 369.335938 148.96875 368.578125 L 148.179688 368.433594 C 143.804688 367.617188 143.804688 367.617188 142.125 366.75 C 141.25 366.617188 140.375 366.492188 139.5 366.375 L 139.125 366 L 137.953125 365.835938 C 135.648438 365.5 133.523438 364.765625 131.34375 363.960938 C 129.40625 363.257812 127.476562 362.652344 125.472656 362.164062 C 124.226562 361.792969 123.070312 361.269531 121.875 360.75 C 120.953125 360.402344 120.03125 360.058594 119.109375 359.71875 C 111.808594 357.003906 104.824219 353.757812 97.875 350.25 L 95.625 349.125 L 95.625 348.375 L 94.972656 348.238281 C 94.078125 347.988281 93.386719 347.640625 92.578125 347.179688 L 91.6875 346.671875 C 90.417969 345.929688 89.152344 345.171875 87.890625 344.410156 C 86.730469 343.710938 85.554688 343.042969 84.375 342.375 L 84.375 341.625 L 83.726562 341.496094 C 82.792969 341.226562 82.101562 340.847656 81.28125 340.335938 L 80.480469 339.84375 L 79.875 339.375 L 79.875 338.625 L 79.125 338.390625 C 77.578125 337.679688 76.339844 336.667969 75 335.625 C 74.460938 335.21875 73.921875 334.8125 73.382812 334.40625 L 72.660156 333.863281 C 72.078125 333.433594 71.476562 333.027344 70.875 332.625 L 70.875 331.875 L 70.101562 331.640625 C 68.84375 331.050781 67.976562 330.304688 66.957031 329.378906 C 66.382812 328.839844 66.382812 328.839844 65.625 328.5 L 65.625 327.75 L 65.015625 327.492188 C 64.226562 327.054688 63.636719 326.617188 62.953125 326.039062 C 61.980469 325.140625 61.980469 325.140625 61.125 324.75 L 61.125 324 L 60.375 324 L 60.375 323.25 L 59.625 323.25 L 59.625 322.5 L 58.875 322.5 L 58.875 321.75 L 58.214844 321.460938 C 57.289062 320.953125 56.664062 320.386719 55.914062 319.640625 L 55.109375 318.839844 L 54.28125 318 L 53.433594 317.164062 L 52.632812 316.359375 L 51.902344 315.625 L 51.375 315 L 51.375 314.25 L 50.625 314.25 L 50.625 313.5 L 49.875 313.5 L 49.875 312.75 L 49.125 312.75 L 49.125 312 L 48.375 312 C 48 311.375 47.625 310.75 47.25 310.125 C 46.679688 309.523438 46.09375 308.9375 45.492188 308.367188 C 44.9375 307.84375 44.398438 307.304688 43.875 306.75 L 43.875 306 L 43.125 306 L 42 304.125 L 40.125 302.25 L 40.125 301.5 L 39.375 301.5 C 38.707031 300.511719 38.253906 299.636719 37.875 298.5 L 37.125 298.5 C 36.457031 297.511719 36.003906 296.636719 35.625 295.5 L 34.875 295.5 L 34.125 293.25 L 33.375 293.25 C 32.980469 292.636719 32.605469 292.011719 32.25 291.375 C 31.753906 290.621094 31.253906 289.871094 30.75 289.125 C 28.847656 286.296875 28.847656 286.296875 28.125 285 L 28.125 284.25 L 27.375 284.25 C 27.125 283.765625 26.875 283.28125 26.625 282.796875 L 26.203125 281.980469 C 25.875 281.25 25.875 281.25 25.875 280.5 L 25.125 280.5 C 24.75 279.765625 24.375 279.03125 24 278.296875 L 23.367188 277.058594 C 22.875 276 22.875 276 22.875 275.25 L 22.125 275.25 L 22.125 273.75 L 21.375 273.75 L 21.375 272.25 L 20.625 272.25 L 20.625 270.75 L 19.875 270.75 C 19.214844 269.59375 19.125 269.164062 19.125 267.75 L 18.375 267.75 L 18.003906 266.75 L 17.507812 265.429688 L 17.019531 264.125 C 16.542969 262.882812 16.542969 262.882812 15.875 261.871094 C 15.375 261 15.375 261 15.375 259.5 L 14.625 259.5 C 14.132812 258.140625 13.875 257.214844 13.875 255.75 L 13.125 255.75 C 12.5 253.761719 11.898438 251.824219 11.625 249.75 L 10.875 249.75 L 10.667969 248.941406 C 10.039062 246.515625 10.039062 246.515625 9.117188 244.195312 C 8.601562 242.945312 8.527344 242.085938 8.625 240.75 L 7.875 240.75 C 7.375 238.933594 7.03125 237.398438 7.125 235.5 L 6.375 235.5 L 6.15625 234.304688 C 5.40625 230.199219 5.40625 230.199219 4.5 226.125 L 4.125 225.75 C 4.019531 225.203125 3.929688 224.652344 3.855469 224.097656 L 3.710938 223.085938 L 3.5625 222.023438 C 3.464844 221.332031 3.367188 220.640625 3.269531 219.949219 L 3.140625 219.019531 C 3.03125 218.230469 3.03125 218.230469 2.625 217.5 C 2.507812 216.539062 2.433594 215.582031 2.355469 214.617188 C 2.296875 213.742188 2.296875 213.742188 1.875 213 C 1.796875 212.195312 1.738281 211.390625 1.6875 210.585938 C 1.605469 209.289062 1.535156 208.234375 1.125 207 C 1.089844 206.480469 1.074219 205.960938 1.074219 205.4375 L 1.070312 204.476562 L 1.070312 203.421875 L 1.066406 202.308594 C 1.0625 201.089844 1.0625 199.871094 1.0625 198.652344 L 1.058594 196.101562 C 1.054688 194.316406 1.054688 192.527344 1.054688 190.742188 C 1.054688 188.46875 1.050781 186.191406 1.042969 183.917969 C 1.039062 182.160156 1.039062 180.398438 1.039062 178.640625 C 1.039062 177.804688 1.039062 176.964844 1.035156 176.128906 C 1.015625 169.992188 1.433594 164.28125 2.703125 158.261719 C 3.132812 156.15625 3.4375 154.03125 3.75 151.90625 C 3.863281 151.144531 3.992188 150.382812 4.125 149.625 L 4.5 149.25 C 4.695312 148.386719 4.871094 147.519531 5.039062 146.648438 L 5.191406 145.875 C 5.410156 144.761719 5.621094 143.652344 5.824219 142.535156 C 6.152344 140.78125 6.613281 139.066406 7.207031 137.382812 C 7.535156 136.394531 7.800781 135.398438 8.0625 134.390625 C 8.496094 132.765625 9.085938 131.296875 9.75 129.75 C 9.9375 129.089844 10.117188 128.425781 10.289062 127.757812 C 10.726562 126.089844 11.277344 124.535156 11.941406 122.945312 C 12.273438 122.125 12.589844 121.296875 12.890625 120.464844 C 13.902344 117.679688 14.992188 115.03125 16.363281 112.398438 C 16.839844 111.445312 17.242188 110.496094 17.625 109.5 C 18.472656 107.300781 19.546875 105.21875 20.625 103.125 L 21.375 103.125 L 21.375 101.625 L 22.125 101.625 L 22.425781 100.648438 C 22.878906 99.363281 23.425781 98.195312 24.046875 96.984375 L 24.660156 95.78125 L 25.125 94.875 L 25.875 94.875 L 26.203125 93.84375 C 26.535156 92.878906 26.894531 92.019531 27.375 91.125 L 28.125 91.125 L 28.875 88.875 L 29.625 88.875 L 29.835938 87.984375 C 30.480469 86.359375 31.390625 85.097656 32.414062 83.691406 C 33.007812 82.910156 33.007812 82.910156 33.375 82.125 L 34.125 82.125 L 34.875 79.875 L 35.625 79.875 L 37.125 76.875 L 37.875 76.875 L 39.375 73.875 L 40.125 73.875 L 40.40625 73.265625 C 40.988281 72.15625 41.636719 71.136719 42.375 70.125 L 43.125 70.125 L 43.125 69.375 L 43.875 69.375 L 44.179688 68.726562 C 44.640625 67.84375 45.160156 67.078125 45.75 66.28125 L 46.335938 65.480469 L 46.875 64.875 L 47.625 64.875 L 47.625 64.125 L 48.375 64.125 L 48.613281 63.515625 C 49.324219 62.277344 50.300781 61.34375 51.304688 60.347656 L 51.953125 59.695312 C 52.402344 59.246094 52.855469 58.796875 53.304688 58.347656 C 54 57.65625 54.691406 56.960938 55.378906 56.269531 L 56.695312 54.957031 L 57.324219 54.324219 C 57.824219 53.824219 58.347656 53.347656 58.875 52.875 L 59.625 52.875 L 59.625 52.125 L 60.375 52.125 L 60.375 51.375 L 61.125 51.375 L 61.125 50.625 L 61.875 50.625 L 61.875 49.875 C 62.621094 49.367188 63.371094 48.867188 64.125 48.375 L 65.625 46.875 L 66.375 46.875 L 66.375 46.125 L 67.125 46.125 L 67.125 45.375 C 68.320312 44.503906 69.53125 43.746094 70.875 43.125 L 70.875 42.375 C 71.503906 41.808594 71.503906 41.808594 72.328125 41.203125 L 73.144531 40.589844 L 73.875 40.125 L 74.625 40.125 L 74.625 39.375 C 75.242188 38.984375 75.867188 38.609375 76.5 38.25 C 77.1875 37.757812 77.867188 37.253906 78.542969 36.746094 L 79.125 36.375 L 79.875 36.375 L 79.875 35.625 L 82.125 34.875 L 82.125 34.125 L 84.375 33.375 L 84.375 32.625 L 86.625 31.875 L 86.625 31.125 C 87.109375 30.875 87.59375 30.625 88.078125 30.375 L 88.894531 29.953125 C 89.625 29.625 89.625 29.625 90.375 29.625 L 90.375 28.875 C 90.859375 28.625 91.34375 28.375 91.828125 28.125 L 92.644531 27.703125 C 93.375 27.375 93.375 27.375 94.125 27.375 L 94.125 26.625 L 95.625 26.625 L 95.625 25.875 L 96.960938 25.253906 C 100.019531 23.824219 103.042969 22.363281 106.007812 20.742188 C 108.730469 19.265625 111.5 18.148438 114.417969 17.125 C 115.546875 16.726562 116.660156 16.296875 117.773438 15.867188 L 118.96875 15.410156 C 119.773438 15.089844 120.570312 14.746094 121.359375 14.390625 C 122.777344 13.8125 124.199219 13.433594 125.683594 13.066406 C 126.777344 12.769531 126.777344 12.769531 127.867188 12.238281 C 130.003906 11.292969 132.316406 10.828125 134.578125 10.265625 C 135.5 10.035156 136.421875 9.804688 137.339844 9.570312 C 137.746094 9.46875 138.152344 9.371094 138.570312 9.265625 C 139.472656 9.089844 139.472656 9.089844 139.875 8.625 C 141.238281 8.367188 142.601562 8.136719 143.96875 7.914062 C 144.730469 7.785156 145.492188 7.644531 146.25 7.5 L 146.625 7.125 C 147.683594 6.9375 148.746094 6.765625 149.8125 6.609375 C 152.257812 6.238281 154.691406 5.835938 157.125 5.390625 C 159.234375 5.007812 161.324219 4.71875 163.460938 4.578125 C 164.320312 4.523438 164.320312 4.523438 165.375 4.125 C 166.117188 4.074219 166.863281 4.039062 167.605469 4.019531 L 168.945312 3.976562 L 170.34375 3.9375 C 171.253906 3.910156 172.160156 3.882812 173.070312 3.855469 L 174.289062 3.820312 C 175.511719 3.769531 175.511719 3.769531 176.761719 3.558594 C 178.316406 3.347656 179.824219 3.320312 181.394531 3.324219 M 89.625 83.625 L 89.625 84.375 L 88.816406 84.363281 L 86.730469 84.339844 L 85.875 84.375 L 85.5 84.75 L 82.875 85.125 L 82.5 85.5 C 81.625 85.636719 80.75 85.761719 79.875 85.875 L 79.875 86.625 L 77.625 86.625 L 77.625 87.375 L 73.875 88.125 L 73.875 88.875 L 72.375 88.875 L 72.375 89.625 L 70.875 89.625 L 70.875 90.375 L 69.375 90.375 L 69.375 91.125 L 65.625 92.625 L 65.625 93.375 L 63.375 94.125 L 63.375 94.875 L 61.125 95.625 L 61.125 96.375 L 60.375 96.375 L 60.375 97.125 L 59.507812 97.453125 C 58.445312 97.859375 58.445312 97.859375 57.375 98.625 L 57.375 99.375 L 56.625 99.375 L 56.625 100.125 L 55.875 100.125 L 55.875 100.875 L 55.125 100.875 L 55.125 101.625 L 54.375 101.625 L 54.375 102.375 L 53.625 102.375 L 53.625 103.125 L 52.875 103.125 L 52.875 103.875 L 52.125 103.875 L 52.125 104.625 L 51.375 104.625 L 51.375 105.375 L 50.625 105.375 C 49.808594 106.445312 49.808594 106.445312 49.125 107.625 L 49.125 108.375 L 48.375 108.375 L 48.375 109.125 L 47.625 109.125 L 46.875 111.375 L 46.125 111.375 C 45.527344 112.191406 45.527344 112.191406 44.953125 113.203125 L 44.339844 114.230469 C 43.816406 115.066406 43.816406 115.066406 43.875 115.875 L 43.125 115.875 L 43.125 117.375 L 42.375 117.375 C 41.996094 118.09375 41.621094 118.8125 41.25 119.53125 L 40.617188 120.742188 C 40.023438 121.898438 40.023438 121.898438 40.125 123.375 L 39.375 123.375 L 39.375 124.875 L 38.625 124.875 L 38.625 127.125 L 37.875 127.125 C 37.277344 128.691406 37.046875 129.949219 37.125 131.625 L 36.375 131.625 L 36.375 133.875 L 35.625 133.875 L 35.625 136.875 L 34.875 136.875 C 34.226562 140.980469 34.226562 140.980469 34.125 145.125 L 33.375 145.125 C 32.367188 157.027344 32.273438 168.851562 33.375 180.75 L 34.125 180.75 L 34.875 188.25 L 35.625 188.25 L 35.625 191.25 L 36.375 191.25 L 36.375 193.5 L 37.125 193.5 L 37.125 195.75 L 37.875 195.75 L 37.875 198 L 38.625 198 L 38.625 199.5 L 39.375 199.5 L 40.125 203.25 L 40.875 203.25 L 41.15625 204.1875 C 41.695312 205.695312 42.382812 207.082031 43.125 208.5 L 43.875 208.5 L 43.875 210 L 44.625 210 L 45.375 212.25 L 46.125 212.25 L 46.875 214.5 L 47.625 214.5 L 47.625 215.25 L 48.375 215.25 L 49.875 218.25 L 50.625 218.25 L 50.625 219 L 51.375 219 L 51.375 219.75 L 52.125 219.75 L 52.125 220.5 L 52.875 220.5 L 52.875 221.25 L 53.625 221.25 L 53.625 222 L 54.375 222 L 54.375 222.75 L 55.125 222.75 L 55.125 223.5 L 55.875 223.5 L 55.875 224.25 L 56.625 224.25 L 56.625 225 C 57.820312 225.871094 59.03125 226.628906 60.375 227.25 L 60.375 228 C 61.214844 228.617188 61.214844 228.617188 62.273438 229.242188 C 63.476562 229.976562 64.648438 230.722656 65.785156 231.558594 C 67.070312 232.488281 68.398438 233.246094 69.820312 233.953125 L 70.589844 234.335938 C 73.558594 235.769531 76.648438 236.839844 79.78125 237.851562 C 80.492188 238.082031 81.195312 238.324219 81.898438 238.570312 C 89.230469 240.941406 98.5 242.328125 106.125 240.75 C 107.488281 240.636719 108.859375 240.585938 110.226562 240.523438 C 111.4375 240.460938 112.46875 240.386719 113.625 240 C 114.699219 239.886719 115.773438 239.808594 116.851562 239.730469 L 117.75 239.625 L 118.125 239.25 C 118.644531 239.136719 119.167969 239.035156 119.695312 238.945312 C 123.953125 238.121094 127.988281 236.746094 132 235.125 L 133.875 234.375 L 133.875 233.625 L 134.503906 233.496094 C 135.523438 233.207031 136.398438 232.773438 137.34375 232.289062 L 138.355469 231.773438 L 139.125 231.375 L 139.125 230.625 L 139.828125 230.460938 C 140.636719 230.277344 140.636719 230.277344 141.375 229.875 L 141.375 229.125 L 142.242188 228.796875 C 143.304688 228.390625 143.304688 228.390625 144.375 227.625 L 144.375 226.875 L 145.125 226.875 L 145.125 226.125 L 145.960938 225.839844 C 147.085938 225.335938 147.734375 224.792969 148.59375 223.921875 L 149.371094 223.152344 C 150.042969 222.417969 150.042969 222.417969 150.273438 221.527344 L 150.375 220.875 L 151.125 220.875 L 151.125 220.125 L 151.875 220.125 C 152.699219 219.269531 152.699219 219.269531 153.375 218.25 L 153.375 217.125 L 154.125 217.125 C 154.722656 216.410156 154.722656 216.410156 155.296875 215.507812 L 155.910156 214.597656 C 156.464844 213.746094 156.464844 213.746094 156.375 212.625 L 157.125 212.625 C 158.007812 210.980469 158.886719 209.328125 159.765625 207.679688 C 160.046875 207.144531 160.332031 206.609375 160.617188 206.078125 C 161.40625 204.566406 161.972656 203.050781 162.480469 201.429688 C 162.75 200.625 162.75 200.625 163.3125 199.359375 C 163.941406 197.835938 164.351562 196.316406 164.757812 194.722656 C 165 193.875 165 193.875 165.375 193.5 C 165.46875 192.390625 165.46875 192.390625 165.375 191.25 C 164.308594 190.183594 163.03125 189.828125 161.625 189.375 C 160.25 189.011719 158.859375 188.71875 157.46875 188.417969 C 156.164062 188.128906 155.25 187.875 154.125 187.125 C 153.488281 186.925781 152.847656 186.746094 152.203125 186.585938 C 150.9375 186.253906 149.691406 185.910156 148.453125 185.484375 C 146.515625 184.816406 144.546875 184.261719 142.574219 183.707031 C 141.28125 183.335938 140.046875 182.933594 138.820312 182.386719 C 137.550781 181.84375 136.738281 181.714844 135.375 181.875 L 134.625 182.625 C 134.5625 183.78125 134.5625 183.78125 134.625 184.875 L 133.875 184.875 L 133.757812 186.023438 C 133.492188 187.550781 133.007812 188.710938 132.375 190.125 C 131.746094 191.847656 131.167969 193.558594 130.875 195.375 L 130.125 195.375 L 130.125 196.875 L 129.375 196.875 L 128.625 198.117188 L 128.203125 198.816406 C 127.792969 199.542969 127.792969 199.542969 127.875 200.625 L 127.125 200.625 L 127.125 201.375 L 126.375 201.375 C 125.84375 201.984375 125.84375 201.984375 125.320312 202.757812 C 124.386719 204.042969 123.441406 205.1875 122.25 206.25 L 121.125 206.625 L 121.125 207.375 L 120.375 207.375 L 120.375 208.125 L 116.625 209.625 L 116.625 210.375 L 115.125 210.375 L 115.125 211.125 L 114.328125 211.265625 C 113.238281 211.480469 113.238281 211.480469 112.171875 211.875 C 110.910156 212.277344 109.6875 212.445312 108.375 212.625 L 108 213 C 107.066406 213.042969 106.144531 213.0625 105.210938 213.0625 L 104.355469 213.066406 C 103.753906 213.070312 103.152344 213.070312 102.550781 213.070312 C 101.640625 213.070312 100.730469 213.078125 99.820312 213.085938 C 95.835938 213.097656 92.554688 212.804688 88.875 211.125 C 86.894531 210.304688 84.917969 209.519531 82.875 208.875 L 82.875 208.125 C 82.011719 207.488281 82.011719 207.488281 81 207 L 79.875 207 L 79.875 206.25 L 79.125 206.25 L 79.125 205.5 C 78.480469 204.863281 78.480469 204.863281 77.671875 204.210938 C 76.703125 203.40625 76.082031 202.8125 75.375 201.75 L 74.625 201.75 L 74.507812 201.09375 C 74.210938 200.117188 73.804688 199.507812 73.125 198.75 L 72.375 198.75 L 72.234375 198.09375 C 71.996094 197.234375 71.667969 196.539062 71.25 195.75 C 70.722656 194.753906 70.359375 193.855469 70.125 192.75 L 69.375 192.75 L 69.445312 191.976562 C 69.371094 190.816406 69.011719 190.027344 68.546875 188.976562 C 68.066406 187.804688 67.769531 186.59375 67.476562 185.367188 L 67.28125 184.570312 C 66.746094 182.316406 66.320312 180.042969 66 177.75 L 65.808594 176.398438 C 65.1875 171.710938 65.136719 167.054688 65.152344 162.328125 C 65.15625 161.015625 65.152344 159.703125 65.148438 158.386719 C 65.144531 153.902344 65.273438 149.554688 66 145.125 L 66.210938 143.734375 C 66.539062 141.601562 66.539062 141.601562 66.75 140.625 L 67.125 140.25 L 67.265625 139.101562 C 67.519531 137.503906 68.03125 136.117188 68.625 134.625 C 68.902344 133.898438 69.175781 133.171875 69.445312 132.445312 L 69.835938 131.40625 C 70.183594 130.480469 70.183594 130.480469 70.125 129.375 L 70.875 129.375 L 70.875 127.875 L 71.625 127.875 L 72.375 126.632812 L 72.796875 125.933594 C 73.207031 125.207031 73.207031 125.207031 73.125 124.125 L 73.875 124.125 C 74.46875 123.480469 74.46875 123.480469 75.046875 122.671875 L 75.660156 121.855469 L 76.125 121.125 L 76.125 120.375 L 76.875 120.375 L 76.875 119.625 L 77.625 119.625 L 77.625 118.875 L 78.375 118.875 L 78.375 118.125 L 78.984375 118.054688 C 80.023438 117.699219 80.671875 117.113281 81.488281 116.398438 C 84.414062 113.992188 87.769531 112.503906 91.417969 111.605469 C 92.234375 111.453125 92.234375 111.453125 92.625 111 C 98.332031 109.667969 105.300781 109.394531 111 110.882812 C 111.882812 111.152344 112.757812 111.4375 113.625 111.75 L 114.851562 112.175781 C 117.195312 113.066406 119.144531 114.226562 121.140625 115.742188 L 121.875 116.25 L 122.625 116.25 L 122.625 117 C 123.371094 117.503906 124.121094 118.003906 124.875 118.5 C 126.671875 120.136719 126.671875 120.136719 127.125 121.5 L 127.875 121.5 L 127.875 122.25 L 128.625 122.25 L 129.375 124.5 L 130.125 124.5 L 131.625 129 L 132.375 129 L 132.375 130.5 L 133.125 130.5 L 133.125 132.75 L 133.875 132.75 L 133.875 135 C 135.023438 135.484375 135.023438 135.484375 136.347656 135.121094 C 136.890625 134.992188 137.433594 134.855469 137.976562 134.71875 L 138.851562 134.503906 C 139.695312 134.296875 140.535156 134.089844 141.375 133.875 L 142.507812 133.589844 L 144.566406 133.066406 C 146.738281 132.539062 148.917969 132.054688 151.097656 131.566406 C 152.917969 131.152344 154.730469 130.730469 156.539062 130.265625 C 158.722656 129.703125 160.925781 129.285156 163.140625 128.867188 L 164.25 128.625 L 164.625 128.25 C 164.800781 125.820312 164.320312 123.960938 163.5 121.6875 L 163.175781 120.753906 C 162.914062 120 162.644531 119.25 162.375 118.5 L 161.625 118.5 L 161.625 117 L 160.875 117 L 160.875 115.5 L 160.125 115.5 L 160.21875 114.726562 C 160.085938 113.1875 159.441406 112.304688 158.625 111 L 157.875 111 L 157.710938 110.296875 C 157.527344 109.488281 157.527344 109.488281 157.125 108.75 L 156.375 108.75 L 156.246094 108.101562 C 155.976562 107.167969 155.597656 106.476562 155.085938 105.65625 L 154.59375 104.855469 L 154.125 104.25 L 153.375 104.25 L 153.375 103.5 L 152.625 103.5 L 152.566406 102.886719 C 152.101562 101.585938 151.179688 100.78125 150.210938 99.84375 L 149.640625 99.269531 C 149.152344 98.785156 148.640625 98.328125 148.125 97.875 L 147.375 97.875 L 147.375 97.125 L 145.875 96.75 L 145.875 96 C 145.058594 95.316406 145.058594 95.316406 144.046875 94.640625 L 143.019531 93.921875 L 142.125 93.375 L 141.375 93.375 L 141.375 92.625 C 140.890625 92.375 140.40625 92.125 139.921875 91.875 L 139.105469 91.453125 C 138.394531 91.074219 138.394531 91.074219 137.625 91.125 L 137.625 90.375 C 130.585938 86.613281 122.804688 83.890625 114.808594 83.34375 L 114 83.25 L 113.625 82.875 C 112.746094 82.832031 111.882812 82.8125 111.003906 82.8125 L 110.183594 82.808594 C 109.292969 82.804688 108.398438 82.804688 107.507812 82.804688 L 106.59375 82.804688 C 100.910156 82.804688 95.285156 83.105469 89.625 83.625 M 176.625 85.125 L 176.625 85.875 L 175.875 85.875 L 175.875 87 L 176.625 87 L 176.625 89.25 L 177.375 89.25 L 177.375 91.5 L 178.125 91.5 L 178.125 93.75 L 178.875 93.75 L 178.875 96 L 179.625 96 L 179.625 98.25 L 180.375 98.25 L 181.125 102 L 181.875 102 L 181.875 104.25 L 182.625 104.25 L 182.625 106.5 L 183.375 106.5 L 184.125 110.25 L 184.875 110.25 L 184.875 112.5 L 185.625 112.5 L 185.625 114.75 L 186.375 114.75 L 186.375 117 L 187.125 117 L 187.125 119.25 L 187.875 119.25 L 188.625 123 L 189.375 123 L 189.375 125.25 L 190.125 125.25 L 190.125 127.5 L 190.875 127.5 L 191.027344 128.300781 C 191.253906 129.398438 191.535156 130.472656 191.835938 131.554688 L 192.140625 132.664062 L 192.375 133.5 L 193.125 133.5 L 193.125 135.75 L 193.875 135.75 L 193.875 138 L 194.625 138 L 194.625 140.25 L 195.375 140.25 L 196.125 144 L 196.875 144 L 196.875 146.25 L 197.625 146.25 L 197.625 148.5 L 198.375 148.5 L 198.375 150.75 L 199.125 150.75 L 199.875 154.5 L 200.625 154.5 L 200.625 156.75 L 201.375 156.75 L 201.375 159 L 202.125 159 L 202.125 161.25 L 202.875 161.25 L 203.625 165 L 204.375 165 L 204.375 167.25 L 205.125 167.25 L 205.125 169.5 L 205.875 169.5 L 205.875 171.75 L 206.625 171.75 L 206.625 174 L 207.375 174 L 207.375 175.5 L 208.125 175.5 L 208.125 177.75 L 208.875 177.75 L 208.875 180 L 209.625 180 L 209.625 182.25 L 210.375 182.25 L 211.125 186 L 211.875 186 L 211.875 188.25 L 212.625 188.25 L 212.625 190.5 L 213.375 190.5 L 213.375 192.75 L 214.125 192.75 L 214.875 196.5 L 215.625 196.5 L 215.625 198.75 L 216.375 198.75 L 216.375 201 L 217.125 201 L 217.125 203.25 L 217.875 203.25 L 217.875 205.5 L 218.625 205.5 L 218.625 207 L 219.375 207 L 219.375 209.25 L 220.125 209.25 L 220.125 211.5 L 220.875 211.5 L 220.875 213.75 L 221.625 213.75 L 221.625 216 L 222.375 216 L 222.375 217.5 L 223.125 217.5 L 223.125 219.75 L 223.875 219.75 L 223.875 222 L 224.625 222 L 224.625 224.25 L 225.375 224.25 L 225.375 226.5 L 226.125 226.5 L 226.125 228 L 226.875 228 L 226.875 230.25 L 227.625 230.25 L 227.625 232.5 L 228.375 232.5 L 228.375 234 L 229.125 234 L 229.125 236.25 L 229.875 236.25 L 230.25 238.125 L 263.625 238.125 L 266.25 230.625 C 267.070312 228.5625 267.070312 228.5625 267.414062 227.730469 C 267.964844 226.332031 268.410156 224.898438 268.878906 223.46875 C 269.207031 222.511719 269.5625 221.570312 269.953125 220.640625 C 270.804688 218.570312 271.488281 216.445312 272.175781 214.316406 C 272.742188 212.578125 273.394531 210.921875 274.125 209.25 C 274.3125 208.730469 274.496094 208.207031 274.664062 207.679688 L 274.945312 206.820312 L 275.25 205.875 C 276.050781 203.410156 276.890625 200.988281 277.875 198.589844 C 278.441406 197.132812 278.914062 195.644531 279.398438 194.15625 C 279.675781 193.335938 279.988281 192.53125 280.335938 191.742188 C 280.992188 190.230469 281.492188 188.691406 282 187.125 C 283.425781 182.726562 283.425781 182.726562 284.085938 181.242188 C 284.742188 179.730469 285.242188 178.191406 285.75 176.625 C 287.121094 172.394531 287.121094 172.394531 287.953125 170.390625 C 288.679688 168.621094 289.277344 166.816406 289.875 165 C 290.550781 162.9375 291.265625 160.914062 292.101562 158.90625 C 292.777344 157.160156 293.335938 155.378906 293.917969 153.601562 C 294.511719 151.796875 295.171875 150.015625 295.898438 148.261719 C 296.464844 146.832031 296.921875 145.367188 297.398438 143.90625 C 297.675781 143.085938 297.988281 142.28125 298.335938 141.492188 C 298.734375 140.578125 299.089844 139.644531 299.402344 138.695312 L 299.699219 137.792969 L 300 136.875 C 302.195312 130.179688 302.195312 130.179688 303.351562 127.40625 C 303.914062 125.953125 304.390625 124.476562 304.875 123 C 305.550781 120.9375 306.265625 118.914062 307.101562 116.90625 C 307.664062 115.453125 308.140625 113.976562 308.625 112.5 C 309.300781 110.4375 310.015625 108.414062 310.851562 106.40625 C 311.519531 104.683594 312.078125 102.921875 312.644531 101.164062 C 313.121094 99.6875 313.652344 98.234375 314.230469 96.796875 C 315.039062 94.8125 315.730469 92.804688 316.40625 90.773438 L 316.765625 89.714844 L 317.101562 88.699219 L 317.40625 87.792969 C 317.675781 86.957031 317.675781 86.957031 317.625 85.875 C 316.449219 85.289062 315.199219 85.449219 313.910156 85.453125 L 312.984375 85.449219 C 311.96875 85.449219 310.953125 85.449219 309.9375 85.449219 C 309.234375 85.449219 308.53125 85.449219 307.828125 85.449219 C 306.351562 85.449219 304.878906 85.449219 303.402344 85.453125 C 301.507812 85.453125 299.613281 85.453125 297.71875 85.449219 C 296.265625 85.449219 294.8125 85.449219 293.359375 85.449219 C 292.660156 85.449219 291.964844 85.449219 291.265625 85.449219 C 290.289062 85.449219 289.316406 85.449219 288.339844 85.453125 L 287.457031 85.449219 C 285.992188 85.425781 285.992188 85.425781 284.625 85.875 C 284.039062 87.089844 283.59375 88.359375 283.125 89.625 L 282.65625 90.84375 C 282.347656 91.976562 282.320312 92.957031 282.375 94.125 L 281.625 94.125 L 281.625 96.375 L 280.875 96.375 L 280.875 98.625 L 280.125 98.625 L 280.125 100.875 L 279.375 100.875 L 279.375 103.125 L 278.625 103.125 L 278.625 105.375 L 277.875 105.375 L 277.875 107.625 L 277.125 107.625 L 277.125 109.875 L 276.375 109.875 L 276.375 112.125 L 275.625 112.125 L 275.625 114.375 L 274.875 114.375 L 274.875 116.625 L 274.125 116.625 L 274.125 118.875 L 273.375 118.875 L 273.375 121.125 L 272.625 121.125 L 272.625 123.375 L 271.875 123.375 L 271.875 125.625 L 271.125 125.625 L 271.125 127.875 L 270.375 127.875 L 270.375 130.125 L 269.625 130.125 L 269.625 132.375 L 268.875 132.375 L 268.875 134.625 L 268.125 134.625 L 268.125 136.875 L 267.375 136.875 L 267.375 139.125 L 266.625 139.125 L 266.625 141.375 L 265.875 141.375 L 265.875 143.625 L 265.125 143.625 L 265.125 145.875 L 264.375 145.875 L 264.375 148.125 L 263.625 148.125 L 263.25 149.53125 L 263.039062 150.324219 C 262.824219 151.234375 262.824219 151.234375 262.875 152.625 L 262.125 152.625 L 262.125 154.875 L 261.375 154.875 L 261.375 157.125 L 260.625 157.125 L 260.25 158.53125 L 260.039062 159.324219 C 259.824219 160.234375 259.824219 160.234375 259.875 161.625 L 259.125 161.625 L 259.007812 162.773438 C 258.789062 164.03125 258.464844 164.972656 257.933594 166.117188 C 257.558594 167.042969 257.3125 167.972656 257.0625 168.9375 C 256.632812 170.582031 256.042969 172.0625 255.375 173.625 C 255.179688 174.308594 254.992188 174.996094 254.8125 175.6875 C 254.382812 177.332031 253.792969 178.8125 253.125 180.375 C 252.828125 181.414062 252.554688 182.460938 252.285156 183.507812 C 252.046875 184.339844 251.742188 185.148438 251.367188 185.929688 C 250.851562 187.179688 250.777344 188.039062 250.875 189.375 L 250.125 189.375 L 249.75 190.78125 L 249.539062 191.574219 C 249.324219 192.484375 249.324219 192.484375 249.375 193.875 L 248.625 193.875 L 248.625 196.125 L 247.5 195.75 C 246.308594 193.625 245.75 191.164062 245.144531 188.820312 C 244.875 187.796875 244.875 187.796875 244.3125 186.5625 C 243.824219 185.425781 243.5 184.378906 243.1875 183.1875 C 242.757812 181.542969 242.179688 180.058594 241.5 178.5 C 241.34375 178 241.199219 177.496094 241.054688 176.988281 C 240.121094 173.832031 239.011719 170.734375 237.9375 167.625 C 235.328125 160.070312 235.328125 160.070312 234.375 156.75 L 233.625 156.75 L 233.625 154.5 L 232.875 154.5 L 232.875 152.25 L 232.125 152.25 L 232.195312 151.476562 C 232.121094 150.335938 231.796875 149.558594 231.320312 148.53125 C 230.9375 147.597656 230.691406 146.664062 230.4375 145.6875 C 230.007812 144.042969 229.429688 142.558594 228.75 141 C 228.578125 140.449219 228.410156 139.894531 228.25 139.339844 C 227.574219 137.046875 226.816406 134.78125 226.054688 132.515625 L 225.636719 131.265625 C 225.300781 130.261719 224.960938 129.253906 224.625 128.25 L 223.875 128.25 L 223.875 126 L 223.125 126 L 223.125 123.75 L 222.375 123.75 L 222.445312 122.976562 C 222.371094 121.835938 222.046875 121.058594 221.570312 120.03125 C 221.0625 118.789062 220.761719 117.496094 220.441406 116.191406 C 220.140625 115.175781 219.742188 114.246094 219.316406 113.28125 C 218.644531 111.628906 218.148438 109.914062 217.617188 108.210938 L 217.253906 107.054688 C 216.960938 106.121094 216.667969 105.183594 216.375 104.25 L 215.625 104.25 L 215.625 102 L 214.875 102 L 214.945312 101.226562 C 214.871094 100.085938 214.546875 99.308594 214.070312 98.28125 C 213.6875 97.351562 213.441406 96.414062 213.1875 95.4375 C 212.875 94.246094 212.550781 93.199219 212.0625 92.0625 C 211.433594 90.59375 211.078125 89.136719 210.726562 87.582031 C 210.417969 86.609375 210.417969 86.609375 209.796875 85.824219 C 208.878906 85.007812 208.878906 85.007812 207.46875 84.945312 C 206.894531 84.941406 206.320312 84.945312 205.742188 84.953125 L 204.789062 84.953125 C 203.75 84.957031 202.714844 84.964844 201.675781 84.976562 C 200.953125 84.980469 200.230469 84.984375 199.511719 84.984375 C 197.613281 84.992188 195.71875 85.003906 193.820312 85.023438 C 191.886719 85.039062 189.949219 85.042969 188.015625 85.050781 C 184.21875 85.070312 180.421875 85.09375 176.625 85.125 M 144.375 276.375 L 144 276.75 C 143.964844 277.273438 143.949219 277.796875 143.953125 278.324219 L 143.949219 279.351562 L 143.953125 280.488281 L 143.949219 281.679688 C 143.949219 282.992188 143.949219 284.304688 143.949219 285.617188 C 143.949219 286.527344 143.949219 287.441406 143.949219 288.355469 C 143.949219 290.28125 143.949219 292.207031 143.953125 294.128906 C 143.953125 296.574219 143.953125 299.019531 143.949219 301.464844 C 143.949219 303.359375 143.949219 305.253906 143.949219 307.144531 C 143.949219 308.046875 143.949219 308.945312 143.949219 309.84375 C 143.945312 314.203125 143.972656 318.550781 144.167969 322.90625 L 144.210938 323.917969 C 144.25 324.695312 144.3125 325.472656 144.375 326.25 L 144.75 326.625 C 145.46875 326.664062 146.1875 326.671875 146.90625 326.675781 L 148.230469 326.675781 L 149.625 326.671875 L 151.019531 326.675781 L 152.34375 326.675781 L 153.570312 326.671875 L 154.5 326.625 L 154.875 326.25 C 154.921875 325.6875 154.941406 325.121094 154.953125 324.554688 L 154.972656 323.464844 L 154.992188 322.277344 L 155.015625 321.066406 C 155.042969 319.785156 155.0625 318.507812 155.085938 317.226562 L 155.136719 314.628906 C 155.175781 312.503906 155.214844 310.375 155.25 308.25 L 156.347656 308.226562 C 157.714844 308.199219 159.082031 308.164062 160.449219 308.132812 C 161.039062 308.117188 161.625 308.105469 162.214844 308.089844 C 167.308594 307.988281 172.058594 307.808594 176.582031 305.222656 C 177.277344 304.800781 177.277344 304.800781 178.125 304.125 L 178.125 303.375 L 178.875 303.375 L 178.875 302.625 L 179.625 302.625 L 180.375 301.5 L 180.375 300.375 L 181.125 300.375 C 182.648438 297.59375 182.769531 294.957031 182.765625 291.84375 L 182.765625 290.714844 C 182.738281 288.671875 182.550781 286.929688 181.875 285 L 181.125 285 L 181.125 283.5 L 180.375 283.5 L 180.28125 282.855469 C 179.910156 281.722656 179.316406 281.152344 178.476562 280.3125 L 177.644531 279.457031 C 176.007812 278.121094 174.328125 277.285156 172.265625 276.816406 C 166.855469 276.242188 161.4375 276.273438 156.003906 276.300781 C 154.953125 276.304688 153.90625 276.304688 152.855469 276.304688 C 151.601562 276.304688 150.351562 276.308594 149.097656 276.3125 L 147.675781 276.3125 L 146.375 276.320312 L 145.230469 276.324219 Z M 199.125 276.375 L 198.375 277.125 C 198.261719 278.019531 198.261719 278.019531 198.28125 279.078125 L 198.277344 280.332031 L 198.285156 281.714844 L 198.28125 283.164062 C 198.28125 284.480469 198.28125 285.792969 198.285156 287.109375 C 198.289062 288.480469 198.289062 289.855469 198.289062 291.230469 C 198.289062 293.535156 198.292969 295.84375 198.296875 298.148438 C 198.304688 300.820312 198.304688 303.488281 198.304688 306.160156 C 198.304688 308.726562 198.308594 311.289062 198.308594 313.855469 C 198.3125 314.949219 198.3125 316.042969 198.3125 317.136719 C 198.3125 318.660156 198.316406 320.183594 198.320312 321.710938 L 198.320312 323.09375 L 198.324219 324.34375 L 198.328125 325.4375 L 198.375 326.25 L 198.75 326.625 C 199.835938 326.660156 200.910156 326.671875 201.992188 326.667969 L 203.023438 326.667969 C 204.15625 326.667969 205.285156 326.664062 206.414062 326.660156 L 208.757812 326.660156 C 210.820312 326.660156 212.882812 326.65625 214.941406 326.652344 C 217.042969 326.648438 219.144531 326.644531 221.246094 326.644531 C 225.371094 326.640625 229.5 326.632812 233.625 326.625 C 233.90625 325.03125 234.050781 323.535156 234.046875 321.914062 L 234.050781 320.671875 C 234.003906 319.605469 233.847656 318.660156 233.625 317.625 L 232.734375 317.617188 C 229.964844 317.585938 227.191406 317.554688 224.421875 317.515625 C 223 317.496094 221.574219 317.480469 220.148438 317.464844 C 218.777344 317.453125 217.402344 317.4375 216.027344 317.414062 C 215.503906 317.410156 214.980469 317.402344 214.453125 317.398438 C 213.722656 317.390625 212.988281 317.382812 212.253906 317.371094 L 210.988281 317.355469 L 210 317.25 L 209.25 316.5 C 209.152344 315.785156 209.152344 315.785156 209.144531 314.902344 L 209.132812 313.882812 L 209.128906 312.765625 L 209.117188 311.589844 C 209.109375 310.304688 209.101562 309.019531 209.09375 307.730469 C 209.085938 306.839844 209.082031 305.953125 209.074219 305.0625 C 209.054688 302.714844 209.039062 300.367188 209.023438 298.023438 C 209.007812 295.628906 208.992188 293.234375 208.972656 290.84375 C 208.933594 286.144531 208.902344 281.449219 208.875 276.75 C 207.332031 275.976562 205.320312 276.304688 203.625 276.304688 L 202.355469 276.289062 L 201.140625 276.289062 L 200.023438 276.285156 Z M 199.125 276.375 "
        fill-opacity="1" fill-rule="nonzero" />
    <path fill="currentColor"
        d="M 155.25 285.375 C 156.75 285.285156 158.253906 285.289062 159.757812 285.285156 C 160.511719 285.28125 161.261719 285.269531 162.015625 285.257812 C 164.65625 285.246094 166.734375 285.34375 169.125 286.5 L 169.125 287.25 L 169.875 287.25 L 169.875 288 L 170.625 288 C 171.210938 288.539062 171.210938 288.539062 171.75 289.5 C 172.039062 290.605469 172.164062 291.730469 172.125 292.875 C 171.5625 294.644531 170.796875 296.039062 169.5 297.375 L 168.375 297.375 L 168.375 298.125 L 165.375 298.125 L 165.375 298.875 C 163.835938 298.90625 162.296875 298.925781 160.757812 298.945312 L 159.429688 298.972656 L 158.160156 298.984375 L 156.988281 299.003906 C 156 298.875 156 298.875 155.308594 298.476562 C 154.875 297.75 154.875 297.75 154.742188 296.527344 L 154.753906 295.027344 L 154.753906 294.230469 C 154.757812 293.671875 154.761719 293.117188 154.769531 292.558594 C 154.78125 291.703125 154.785156 290.847656 154.789062 289.992188 C 154.804688 287.039062 154.804688 287.039062 154.875 285.75 Z M 155.25 285.375 "
        fill-opacity="1" fill-rule="nonzero" />
</svg>