<svg xmlns="http://www.w3.org/2000/svg" xmlns:xlink="http://www.w3.org/1999/xlink" width="500" zoomAndPan="magnify" viewBox="0 0 375 374.999991" height="500" preserveAspectRatio="xMidYMid meet" version="1.0"><defs><g/><clipPath id="40ed65a867"><rect x="0" width="301" y="0" height="112"/></clipPath></defs><g transform="matrix(1, 0, 0, 1, 74, 158)"><g clip-path="url(#40ed65a867)"><g fill="#0c233c" fill-opacity="1"><g transform="translate(0.993171, 79.183614)"><g><path d="M 46.28125 -31.484375 L 46.28125 -23.890625 L 16.375 -23.890625 L 16.375 0 L 6.71875 0 L 6.71875 -55.375 L 51.34375 -55.375 L 51.34375 -47.78125 L 16.375 -47.78125 L 16.375 -31.484375 Z M 46.28125 -31.484375 "/></g></g></g><g fill="#0c233c" fill-opacity="1"><g transform="translate(62.456521, 79.183614)"><g><path d="M 16.53125 -55.375 L 16.53125 0 L 6.71875 0 L 6.71875 -55.375 Z M 16.53125 -55.375 "/></g></g></g><g fill="#0c233c" fill-opacity="1"><g transform="translate(94.810689, 79.183614)"><g><path d="M 45.640625 -55.375 L 56.40625 -55.375 L 33.78125 0 L 22.390625 0 L -0.3125 -55.375 L 10.921875 -55.375 L 28.234375 -9.578125 Z M 45.640625 -55.375 "/></g></g></g><g fill="#0c233c" fill-opacity="1"><g transform="translate(159.991789, 79.183614)"><g><path d="M 16.53125 -30.296875 L 35.84375 -30.296875 C 37.257812 -30.296875 38.8125 -30.453125 40.5 -30.765625 C 42.1875 -31.085938 43.613281 -31.644531 44.78125 -32.4375 C 46.144531 -33.382812 47.023438 -34.488281 47.421875 -35.75 C 47.816406 -37.019531 48.015625 -38.257812 48.015625 -39.46875 C 48.015625 -41.269531 47.695312 -42.671875 47.0625 -43.671875 C 46.4375 -44.671875 45.804688 -45.410156 45.171875 -45.890625 C 44.171875 -46.617188 42.828125 -47.113281 41.140625 -47.375 C 39.453125 -47.644531 37.289062 -47.78125 34.65625 -47.78125 L 16.53125 -47.78125 Z M 6.71875 -55.375 L 36.703125 -55.375 C 38.335938 -55.375 39.984375 -55.332031 41.640625 -55.25 C 43.304688 -55.175781 44.90625 -54.976562 46.4375 -54.65625 C 47.96875 -54.34375 49.429688 -53.882812 50.828125 -53.28125 C 52.222656 -52.675781 53.472656 -51.816406 54.578125 -50.703125 C 56.109375 -49.234375 57.140625 -47.65625 57.671875 -45.96875 C 58.203125 -44.28125 58.46875 -42.457031 58.46875 -40.5 C 58.46875 -38.707031 58.226562 -36.96875 57.75 -35.28125 C 57.269531 -33.59375 56.320312 -32.035156 54.90625 -30.609375 C 53.90625 -29.554688 52.71875 -28.703125 51.34375 -28.046875 C 49.96875 -27.390625 48.597656 -26.925781 47.234375 -26.65625 L 47.234375 -26.5 C 48.335938 -26.289062 49.492188 -25.910156 50.703125 -25.359375 C 51.921875 -24.804688 52.898438 -24.132812 53.640625 -23.34375 C 54.210938 -22.707031 54.671875 -22.03125 55.015625 -21.3125 C 55.359375 -20.601562 55.632812 -19.878906 55.84375 -19.140625 C 56.0625 -18.398438 56.195312 -17.660156 56.25 -16.921875 C 56.300781 -16.191406 56.351562 -15.484375 56.40625 -14.796875 L 56.796875 -7.75 C 56.898438 -6.382812 57.082031 -5.09375 57.34375 -3.875 C 57.613281 -2.664062 58.195312 -1.375 59.09375 0 L 48.421875 0 C 47.148438 -2.269531 46.460938 -4.671875 46.359375 -7.203125 L 46.125 -12.890625 C 46.070312 -14.109375 45.925781 -15.375 45.6875 -16.6875 C 45.445312 -18.007812 44.800781 -19.195312 43.75 -20.25 C 43.113281 -20.832031 42.398438 -21.296875 41.609375 -21.640625 C 40.816406 -21.984375 39.984375 -22.234375 39.109375 -22.390625 C 38.242188 -22.546875 37.398438 -22.632812 36.578125 -22.65625 C 35.765625 -22.6875 35.039062 -22.703125 34.40625 -22.703125 L 16.53125 -22.703125 L 16.53125 0 L 6.71875 0 Z M 6.71875 -55.375 "/></g></g></g><g fill="#0c233c" fill-opacity="1"><g transform="translate(231.73829, 79.183614)"><g><path d="M 40.90625 -21.203125 L 30.0625 -46.28125 L 19.375 -21.203125 Z M 10.28125 0 L -0.3125 0 L 24.921875 -55.375 L 35.359375 -55.375 L 60.515625 0 L 49.921875 0 L 43.515625 -14.078125 L 16.453125 -14.078125 Z M 10.28125 0 "/></g></g></g></g></g><path fill="#1b1d23" d="M 7.179688 150.339844 C 7.46875 150.320312 7.757812 150.320312 8.050781 150.324219 L 8.390625 150.324219 C 8.773438 150.320312 9.152344 150.324219 9.535156 150.324219 C 9.808594 150.324219 10.082031 150.324219 10.359375 150.324219 C 11.117188 150.324219 11.878906 150.324219 12.636719 150.324219 C 13.375 150.328125 14.109375 150.328125 14.847656 150.328125 C 16.363281 150.324219 17.882812 150.328125 19.398438 150.328125 C 20.921875 150.332031 22.445312 150.332031 23.96875 150.332031 L 25.421875 150.332031 C 29.851562 150.335938 34.28125 150.335938 38.710938 150.34375 L 39.03125 150.34375 C 41.6875 150.347656 44.34375 150.347656 46.996094 150.351562 L 49.542969 150.351562 C 57.183594 150.355469 64.824219 150.363281 72.464844 150.375 C 77.769531 150.382812 83.074219 150.386719 88.378906 150.386719 C 93.484375 150.390625 98.585938 150.394531 103.6875 150.402344 L 104.023438 150.402344 C 105.671875 150.40625 107.324219 150.40625 108.972656 150.40625 C 110.796875 150.40625 112.625 150.410156 114.453125 150.414062 C 115.4375 150.417969 116.421875 150.417969 117.410156 150.417969 C 118.125 150.417969 118.839844 150.417969 119.554688 150.421875 C 119.84375 150.425781 120.128906 150.425781 120.414062 150.421875 C 120.800781 150.421875 121.1875 150.425781 121.570312 150.425781 L 121.90625 150.421875 C 122.632812 150.433594 122.632812 150.433594 122.980469 150.632812 C 123.285156 150.875 123.492188 151.128906 123.707031 151.453125 C 123.871094 151.921875 123.914062 152.183594 123.839844 152.675781 C 123.402344 153.710938 122.582031 154.535156 121.847656 155.367188 C 121.59375 155.660156 121.347656 155.957031 121.105469 156.257812 L 120.847656 156.574219 C 120.65625 156.804688 120.472656 157.039062 120.285156 157.273438 L 119.988281 157.644531 L 119.722656 157.980469 L 119.5 158.222656 L 119.257812 158.222656 L 119.015625 158.828125 L 118.773438 158.828125 L 118.707031 159.078125 C 118.542969 159.410156 118.425781 159.550781 118.164062 159.800781 C 117.667969 160.273438 117.28125 160.8125 116.875 161.363281 C 116.566406 161.773438 116.230469 162.152344 115.882812 162.535156 C 115.3125 163.171875 114.78125 163.84375 114.25 164.515625 L 113.957031 164.882812 L 113.691406 165.21875 L 113.46875 165.460938 L 113.226562 165.460938 L 113.152344 165.710938 C 112.933594 166.175781 112.636719 166.558594 112.261719 166.910156 L 112.019531 166.910156 L 111.929688 167.175781 C 111.761719 167.550781 111.570312 167.773438 111.289062 168.070312 C 110.800781 168.597656 110.339844 169.140625 109.886719 169.699219 C 109.191406 170.558594 108.484375 171.414062 107.746094 172.238281 C 107.546875 172.464844 107.546875 172.464844 107.34375 172.75 C 107.027344 173.117188 106.671875 173.390625 106.273438 173.664062 L 106.046875 173.824219 C 105.058594 174.507812 104.167969 174.929688 102.972656 175.113281 C 102.546875 175.140625 102.125 175.140625 101.699219 175.136719 L 101.332031 175.136719 C 100.925781 175.136719 100.523438 175.132812 100.117188 175.132812 L 99.246094 175.128906 C 98.628906 175.128906 98.007812 175.125 97.390625 175.125 C 95.839844 175.117188 94.285156 175.117188 92.734375 175.113281 L 91.980469 175.113281 C 88.773438 175.109375 85.5625 175.117188 82.351562 175.144531 C 81.820312 175.148438 81.289062 175.152344 80.757812 175.152344 C 80.140625 175.15625 79.519531 175.160156 78.898438 175.167969 C 78.671875 175.167969 78.445312 175.171875 78.21875 175.171875 C 77.914062 175.171875 77.605469 175.175781 77.300781 175.179688 L 77.03125 175.179688 C 76.417969 175.191406 76.011719 175.324219 75.46875 175.59375 C 75.222656 175.746094 74.980469 175.90625 74.738281 176.070312 L 74.378906 176.3125 L 74.023438 176.558594 L 73.625 176.8125 C 73.289062 177.015625 73.289062 177.015625 73.132812 177.3125 L 73.058594 177.523438 L 72.816406 177.523438 L 72.769531 177.777344 C 72.695312 178.128906 72.695312 178.128906 72.589844 178.476562 C 71.78125 181.273438 71.800781 184.300781 71.832031 187.1875 C 71.839844 188.050781 71.84375 188.910156 71.84375 189.769531 L 71.847656 190.402344 C 71.859375 193.4375 71.832031 196.476562 71.804688 199.511719 C 71.800781 199.960938 71.796875 200.410156 71.792969 200.859375 C 71.785156 201.570312 71.78125 202.285156 71.773438 202.996094 C 71.769531 203.261719 71.769531 203.527344 71.765625 203.789062 C 71.761719 204.15625 71.757812 204.523438 71.753906 204.886719 L 71.753906 205.207031 C 71.746094 205.730469 71.722656 206.246094 71.667969 206.769531 C 71.605469 207.441406 71.59375 208.105469 71.597656 208.777344 C 71.597656 208.90625 71.597656 209.035156 71.597656 209.164062 C 71.597656 209.441406 71.601562 209.71875 71.601562 209.992188 C 71.601562 210.4375 71.605469 210.882812 71.605469 211.328125 C 71.605469 211.96875 71.605469 212.605469 71.609375 213.242188 C 71.613281 214.917969 71.613281 216.589844 71.613281 218.265625 L 71.613281 218.519531 C 71.613281 221.539062 71.597656 224.554688 71.5625 227.574219 C 71.558594 227.878906 71.554688 228.179688 71.550781 228.484375 C 71.535156 229.691406 71.515625 230.898438 71.496094 232.105469 C 71.488281 232.433594 71.484375 232.761719 71.480469 233.085938 C 71.46875 233.675781 71.457031 234.261719 71.445312 234.851562 C 71.441406 235.078125 71.4375 235.304688 71.433594 235.53125 C 71.429688 235.847656 71.421875 236.164062 71.417969 236.480469 L 71.414062 236.761719 C 71.402344 237.117188 71.386719 237.429688 71.269531 237.761719 C 71.128906 237.957031 71.128906 237.957031 70.765625 238.199219 C 70.457031 238.222656 70.164062 238.230469 69.855469 238.226562 L 69.574219 238.230469 C 69.261719 238.230469 68.945312 238.226562 68.632812 238.226562 L 67.957031 238.226562 C 67.347656 238.226562 66.738281 238.226562 66.125 238.222656 C 65.488281 238.222656 64.851562 238.222656 64.210938 238.222656 C 63.003906 238.21875 61.792969 238.21875 60.585938 238.214844 C 59.210938 238.214844 57.835938 238.210938 56.457031 238.210938 C 53.628906 238.207031 50.796875 238.203125 47.96875 238.199219 C 47.921875 237.667969 47.871094 237.136719 47.828125 236.605469 C 47.8125 236.429688 47.796875 236.25 47.777344 236.070312 C 47.726562 235.492188 47.679688 234.910156 47.632812 234.332031 C 47.613281 234.089844 47.59375 233.847656 47.574219 233.605469 C 47.304688 230.417969 47.332031 227.234375 47.335938 224.039062 C 47.335938 223.195312 47.335938 222.351562 47.335938 221.507812 C 47.335938 219.953125 47.335938 218.398438 47.339844 216.839844 C 47.339844 215.304688 47.339844 213.765625 47.34375 212.230469 L 47.34375 210.472656 C 47.34375 207.03125 47.34375 203.585938 47.347656 200.140625 C 47.347656 196.796875 47.351562 193.453125 47.351562 190.109375 L 47.351562 189.796875 L 47.355469 180.34375 L 47.355469 180.050781 C 47.355469 173.578125 47.359375 167.109375 47.363281 160.636719 L 46.640625 161.269531 C 46.460938 161.429688 46.28125 161.589844 46.101562 161.75 L 45.871094 161.957031 L 45.636719 162.171875 L 45.433594 162.324219 L 45.195312 162.324219 L 45.109375 162.542969 C 44.910156 162.878906 44.6875 162.972656 44.347656 163.171875 C 44.144531 163.367188 43.941406 163.566406 43.746094 163.773438 C 43.246094 164.285156 42.726562 164.773438 42.183594 165.238281 C 41.828125 165.558594 41.5 165.902344 41.171875 166.246094 L 40.972656 166.425781 L 40.730469 166.425781 L 40.644531 166.636719 C 40.449219 166.980469 40.210938 167.179688 39.910156 167.4375 C 39.550781 167.75 39.214844 168.050781 38.921875 168.425781 L 38.679688 168.71875 L 38.4375 168.71875 L 38.339844 168.9375 C 38.199219 169.203125 38.066406 169.371094 37.835938 169.5625 L 37.59375 169.5625 L 37.496094 169.78125 C 37.351562 170.046875 37.222656 170.214844 36.992188 170.40625 L 36.75 170.40625 L 36.652344 170.628906 C 36.5 170.902344 36.371094 171.03125 36.125 171.222656 C 35.707031 171.5625 35.367188 171.941406 35.015625 172.351562 C 34.765625 172.644531 34.492188 172.914062 34.214844 173.183594 L 33.953125 173.460938 L 33.734375 173.664062 L 33.492188 173.664062 L 33.394531 173.882812 C 33.25 174.148438 33.121094 174.316406 32.890625 174.507812 L 32.648438 174.507812 L 32.550781 174.722656 C 32.402344 175.003906 32.234375 175.203125 32.015625 175.4375 C 31.328125 176.21875 30.847656 176.847656 30.628906 177.886719 C 30.574219 178.207031 30.523438 178.527344 30.476562 178.851562 L 30.441406 179.09375 C 30.074219 181.621094 30.097656 184.179688 30.109375 186.730469 C 30.109375 187.164062 30.109375 187.597656 30.113281 188.03125 C 30.113281 188.777344 30.113281 189.527344 30.117188 190.273438 C 30.121094 191.457031 30.121094 192.640625 30.125 193.824219 L 30.125 195.347656 C 30.128906 196.5 30.128906 197.648438 30.132812 198.796875 C 30.132812 198.902344 30.132812 199.007812 30.132812 199.113281 C 30.136719 200.820312 30.140625 202.523438 30.144531 204.230469 C 30.152344 205.984375 30.15625 207.738281 30.15625 209.492188 C 30.15625 210.574219 30.160156 211.652344 30.164062 212.734375 C 30.167969 213.472656 30.167969 214.210938 30.167969 214.949219 C 30.167969 215.375 30.167969 215.800781 30.171875 216.226562 C 30.175781 216.691406 30.171875 217.152344 30.171875 217.613281 L 30.175781 218.023438 C 30.175781 218.363281 30.167969 218.683594 30.117188 219.019531 C 29.886719 219.402344 29.886719 219.402344 29.632812 219.621094 C 29.273438 219.800781 28.90625 219.761719 28.511719 219.757812 L 28.234375 219.757812 C 27.925781 219.757812 27.617188 219.757812 27.308594 219.757812 L 26.648438 219.757812 C 26.050781 219.761719 25.449219 219.761719 24.847656 219.757812 C 24.222656 219.757812 23.59375 219.757812 22.96875 219.757812 C 21.914062 219.761719 20.859375 219.757812 19.808594 219.757812 C 18.589844 219.757812 17.371094 219.757812 16.152344 219.757812 C 15.105469 219.761719 14.0625 219.761719 13.015625 219.757812 C 12.390625 219.757812 11.765625 219.757812 11.140625 219.757812 C 10.554688 219.761719 9.964844 219.761719 9.378906 219.757812 C 9.164062 219.757812 8.949219 219.757812 8.730469 219.757812 C 8.4375 219.757812 8.144531 219.757812 7.847656 219.757812 L 7.589844 219.757812 C 7.222656 219.757812 6.945312 219.738281 6.59375 219.621094 C 6.332031 218.960938 6.316406 218.34375 6.320312 217.644531 L 6.320312 217.300781 C 6.320312 216.925781 6.320312 216.546875 6.324219 216.167969 C 6.324219 215.894531 6.320312 215.621094 6.320312 215.347656 C 6.320312 214.597656 6.320312 213.847656 6.324219 213.09375 C 6.324219 212.367188 6.324219 211.640625 6.324219 210.914062 C 6.320312 209.425781 6.320312 207.9375 6.324219 206.449219 C 6.324219 204.976562 6.324219 203.503906 6.324219 202.027344 L 6.324219 200.632812 C 6.324219 197.140625 6.324219 193.648438 6.328125 190.15625 C 6.332031 186.261719 6.332031 182.367188 6.328125 178.46875 L 6.328125 178.175781 C 6.332031 175.117188 6.332031 172.0625 6.332031 169.003906 C 6.332031 167.714844 6.332031 166.425781 6.332031 165.136719 C 6.332031 163.472656 6.332031 161.808594 6.332031 160.148438 C 6.335938 159.347656 6.335938 158.546875 6.335938 157.742188 C 6.335938 157.007812 6.335938 156.273438 6.335938 155.542969 L 6.335938 154.746094 C 6.335938 152.546875 6.335938 152.546875 6.382812 151.511719 L 6.398438 151.160156 C 6.472656 150.867188 6.472656 150.867188 6.652344 150.589844 C 6.957031 150.382812 6.957031 150.382812 7.179688 150.339844 " fill-opacity="1" fill-rule="nonzero"/><path fill="#1b1d24" d="M 30.605469 118.613281 L 31.210938 118.613281 C 31.765625 118.609375 32.320312 118.609375 32.875 118.613281 C 33.476562 118.613281 34.078125 118.613281 34.683594 118.609375 C 35.738281 118.609375 36.796875 118.609375 37.851562 118.609375 C 39.425781 118.609375 40.996094 118.609375 42.566406 118.609375 C 45.863281 118.605469 49.160156 118.605469 52.457031 118.605469 L 52.703125 118.605469 C 54.75 118.605469 56.796875 118.605469 58.84375 118.605469 L 60.824219 118.605469 C 65.4375 118.605469 70.050781 118.605469 74.660156 118.605469 L 79.15625 118.605469 C 84.757812 118.605469 90.355469 118.605469 95.953125 118.601562 L 100.453125 118.601562 C 103.355469 118.601562 106.117188 118.597656 108.738281 118.597656 C 111.410156 118.597656 114.078125 118.597656 116.746094 118.601562 C 119.363281 118.601562 121.980469 118.597656 124.597656 118.597656 C 127.304688 118.59375 130.015625 118.59375 132.722656 118.597656 C 134.285156 118.597656 135.847656 118.597656 137.410156 118.597656 C 138.449219 118.59375 139.492188 118.597656 140.535156 118.597656 C 141.128906 118.597656 141.722656 118.597656 142.320312 118.597656 C 142.859375 118.59375 143.398438 118.597656 143.9375 118.597656 C 144.132812 118.597656 144.328125 118.597656 144.523438 118.597656 C 144.789062 118.597656 145.050781 118.597656 145.316406 118.597656 L 145.757812 118.597656 C 146.15625 118.660156 146.15625 118.660156 146.554688 118.878906 C 146.875 119.136719 147.089844 119.378906 147.277344 119.746094 C 147.433594 120.195312 147.445312 120.609375 147.363281 121.070312 C 147.234375 121.394531 147.078125 121.625 146.878906 121.917969 L 146.683594 122.210938 L 146.519531 122.398438 L 146.277344 122.398438 L 146.164062 122.625 L 145.914062 123.121094 L 145.675781 123.121094 L 145.554688 123.484375 L 145.3125 123.484375 L 145.070312 124.085938 L 144.828125 124.085938 L 144.730469 124.367188 C 144.59375 124.675781 144.492188 124.84375 144.226562 125.050781 L 143.984375 125.050781 L 143.957031 125.25 C 143.828125 125.648438 143.59375 125.90625 143.328125 126.230469 L 143.035156 126.589844 L 142.777344 126.863281 L 142.539062 126.863281 L 142.445312 127.066406 C 142.152344 127.613281 141.726562 128.074219 141.332031 128.550781 L 141.117188 128.816406 C 140.953125 129.015625 140.78125 129.207031 140.609375 129.394531 L 140.367188 129.394531 L 140.335938 129.601562 C 140.21875 129.960938 140.027344 130.167969 139.769531 130.449219 L 139.511719 130.742188 L 139.28125 130.964844 L 139.039062 130.964844 L 138.949219 131.226562 C 138.785156 131.597656 138.589844 131.851562 138.332031 132.160156 L 138.039062 132.511719 C 137.628906 132.992188 137.214844 133.472656 136.804688 133.953125 C 136.332031 134.5 135.875 135.058594 135.417969 135.617188 C 135.203125 135.882812 134.980469 136.140625 134.757812 136.398438 C 134.460938 136.71875 134.460938 136.71875 134.335938 136.996094 L 134.09375 136.996094 L 133.996094 137.207031 C 133.847656 137.484375 133.695312 137.722656 133.492188 137.960938 L 133.25 137.960938 L 133.175781 138.207031 C 132.945312 138.695312 132.613281 139.050781 132.253906 139.453125 L 131.84375 139.914062 L 131.640625 140.144531 C 131.445312 140.367188 131.253906 140.59375 131.066406 140.820312 C 130.191406 141.84375 128.929688 142.511719 127.699219 143.027344 C 126.859375 143.289062 126.066406 143.308594 125.1875 143.316406 L 124.726562 143.324219 C 124.308594 143.332031 123.890625 143.335938 123.472656 143.339844 C 123.203125 143.34375 122.9375 143.34375 122.667969 143.347656 C 119.484375 143.390625 116.300781 143.410156 113.117188 143.398438 L 112.828125 143.398438 C 111.097656 143.394531 109.367188 143.378906 107.636719 143.359375 C 100.46875 143.285156 93.296875 143.257812 86.125 143.269531 L 85.800781 143.269531 C 83.679688 143.273438 81.554688 143.277344 79.429688 143.28125 C 75.828125 143.289062 72.226562 143.292969 68.621094 143.296875 L 65.242188 143.300781 C 62.570312 143.304688 59.894531 143.308594 57.222656 143.3125 L 56.835938 143.3125 C 52.675781 143.316406 48.515625 143.324219 44.355469 143.335938 C 39.4375 143.347656 34.519531 143.351562 29.601562 143.355469 L 29.242188 143.355469 C 27.324219 143.355469 25.40625 143.359375 23.488281 143.367188 C 21.574219 143.371094 19.65625 143.375 17.738281 143.375 C 16.601562 143.375 15.464844 143.375 14.324219 143.382812 C 13.566406 143.386719 12.808594 143.386719 12.050781 143.382812 C 11.617188 143.382812 11.183594 143.382812 10.753906 143.386719 C 10.285156 143.390625 9.820312 143.390625 9.355469 143.386719 C 9.222656 143.386719 9.085938 143.390625 8.949219 143.394531 C 8.582031 143.386719 8.273438 143.367188 7.921875 143.265625 C 7.5625 142.992188 7.304688 142.691406 7.074219 142.300781 C 6.949219 141.804688 6.988281 141.359375 7.074219 140.855469 C 7.25 140.484375 7.25 140.484375 7.558594 140.128906 L 8.042969 139.527344 C 8.539062 138.925781 9.046875 138.332031 9.554688 137.742188 C 10.011719 137.210938 10.460938 136.667969 10.902344 136.125 C 11.210938 135.746094 11.523438 135.375 11.839844 135.003906 C 12.335938 134.421875 12.824219 133.832031 13.308594 133.238281 C 13.691406 132.769531 14.085938 132.308594 14.480469 131.847656 C 14.722656 131.558594 14.949219 131.277344 15.15625 130.964844 L 15.398438 130.964844 C 15.425781 130.875 15.457031 130.789062 15.484375 130.699219 C 15.667969 130.300781 15.894531 130.050781 16.199219 129.734375 C 16.675781 129.226562 17.121094 128.699219 17.550781 128.152344 C 17.925781 127.683594 18.316406 127.230469 18.707031 126.777344 C 19.015625 126.417969 19.015625 126.417969 19.257812 126.019531 L 19.5 126.019531 L 19.589844 125.8125 C 19.769531 125.488281 19.980469 125.226562 20.214844 124.941406 L 20.511719 124.585938 L 20.828125 124.207031 L 20.988281 124.019531 C 21.261719 123.691406 21.539062 123.367188 21.8125 123.042969 C 22.042969 122.773438 22.265625 122.503906 22.488281 122.230469 C 23.425781 121.074219 24.414062 120.15625 25.742188 119.457031 L 25.960938 119.339844 C 27.402344 118.628906 29.03125 118.605469 30.605469 118.613281 " fill-opacity="1" fill-rule="nonzero"/><path fill="#e04606" d="M 134.28125 118.582031 C 134.699219 118.585938 135.113281 118.582031 135.53125 118.582031 C 136.226562 118.582031 136.921875 118.585938 137.617188 118.585938 C 138.421875 118.589844 139.222656 118.589844 140.027344 118.589844 C 140.804688 118.585938 141.578125 118.589844 142.355469 118.589844 C 142.683594 118.589844 143.015625 118.589844 143.34375 118.589844 C 143.800781 118.589844 144.261719 118.59375 144.71875 118.59375 L 145.128906 118.59375 C 146.019531 118.605469 146.019531 118.605469 146.394531 118.757812 C 146.734375 118.96875 146.929688 119.207031 147.167969 119.527344 C 147.382812 119.953125 147.433594 120.332031 147.410156 120.804688 C 147.332031 121.253906 147.136719 121.542969 146.878906 121.917969 L 146.683594 122.210938 L 146.519531 122.398438 L 146.277344 122.398438 L 146.164062 122.625 L 145.914062 123.121094 L 145.675781 123.121094 L 145.554688 123.484375 L 145.3125 123.484375 L 145.070312 124.085938 L 144.828125 124.085938 L 144.730469 124.367188 C 144.59375 124.675781 144.492188 124.84375 144.226562 125.050781 L 143.984375 125.050781 L 143.957031 125.25 C 143.828125 125.648438 143.59375 125.90625 143.328125 126.230469 L 143.035156 126.589844 L 142.777344 126.863281 L 142.539062 126.863281 L 142.445312 127.066406 C 142.152344 127.613281 141.726562 128.074219 141.332031 128.550781 C 141.261719 128.636719 141.1875 128.726562 141.117188 128.816406 C 140.953125 129.015625 140.78125 129.207031 140.609375 129.394531 L 140.367188 129.394531 L 140.335938 129.601562 C 140.21875 129.960938 140.027344 130.167969 139.769531 130.449219 L 139.511719 130.742188 L 139.28125 130.964844 L 139.039062 130.964844 L 138.949219 131.226562 C 138.785156 131.597656 138.589844 131.851562 138.332031 132.160156 L 138.039062 132.511719 C 137.628906 132.992188 137.214844 133.472656 136.804688 133.953125 C 136.332031 134.5 135.875 135.058594 135.417969 135.617188 C 135.203125 135.882812 134.980469 136.140625 134.757812 136.398438 C 134.460938 136.71875 134.460938 136.71875 134.335938 136.996094 L 134.09375 136.996094 L 133.996094 137.207031 C 133.847656 137.484375 133.695312 137.722656 133.492188 137.960938 L 133.25 137.960938 L 133.175781 138.207031 C 132.945312 138.695312 132.613281 139.050781 132.253906 139.453125 L 131.84375 139.914062 L 131.640625 140.144531 C 131.445312 140.367188 131.253906 140.59375 131.066406 140.820312 C 130.191406 141.84375 128.929688 142.511719 127.699219 143.027344 C 126.847656 143.292969 126.035156 143.308594 125.144531 143.316406 L 124.671875 143.324219 C 124.246094 143.332031 123.820312 143.335938 123.398438 143.339844 C 123.132812 143.34375 122.867188 143.34375 122.601562 143.347656 C 121.507812 143.363281 120.414062 143.375 119.316406 143.382812 C 118.875 143.386719 118.429688 143.390625 117.988281 143.394531 C 117.085938 143.40625 116.1875 143.410156 115.289062 143.414062 C 114.984375 143.417969 114.683594 143.417969 114.378906 143.421875 C 113.957031 143.425781 113.535156 143.425781 113.113281 143.425781 L 112.738281 143.433594 C 112.042969 143.429688 111.546875 143.363281 110.933594 143.027344 C 110.722656 142.800781 110.722656 142.800781 110.585938 142.558594 L 110.445312 142.316406 C 110.3125 142.023438 110.242188 141.777344 110.210938 141.457031 C 110.433594 140.59375 110.878906 139.832031 111.5 139.195312 L 111.777344 138.925781 L 111.898438 138.683594 L 112.140625 138.683594 L 112.230469 138.480469 C 112.40625 138.15625 112.613281 137.894531 112.847656 137.613281 L 113.140625 137.257812 C 113.550781 136.773438 113.964844 136.292969 114.378906 135.8125 C 114.929688 135.171875 115.46875 134.515625 116 133.859375 C 116.652344 133.050781 117.320312 132.253906 117.996094 131.46875 C 118.457031 130.933594 118.90625 130.394531 119.347656 129.847656 C 119.546875 129.605469 119.746094 129.363281 119.949219 129.121094 L 120.117188 128.921875 C 120.273438 128.734375 120.429688 128.546875 120.589844 128.363281 C 120.824219 128.089844 120.824219 128.089844 120.945312 127.828125 L 121.1875 127.828125 L 121.1875 127.464844 C 121.316406 127.328125 121.449219 127.1875 121.589844 127.058594 C 122.453125 126.21875 123.207031 125.265625 123.960938 124.328125 L 124.207031 124.027344 C 124.644531 123.488281 125.0625 122.9375 125.46875 122.375 C 125.921875 121.773438 126.386719 121.292969 126.976562 120.832031 L 127.238281 120.617188 C 129.480469 118.808594 131.472656 118.566406 134.28125 118.582031 " fill-opacity="1" fill-rule="nonzero"/><path fill="#2c70c2" d="M 108.679688 150.425781 L 109.140625 150.421875 C 109.550781 150.421875 109.964844 150.421875 110.375 150.421875 C 110.808594 150.425781 111.242188 150.421875 111.675781 150.421875 C 112.402344 150.421875 113.125 150.421875 113.851562 150.425781 C 114.691406 150.429688 115.527344 150.429688 116.367188 150.425781 C 117.089844 150.421875 117.808594 150.421875 118.53125 150.421875 C 118.960938 150.425781 119.394531 150.425781 119.824219 150.421875 C 120.300781 150.421875 120.78125 150.421875 121.257812 150.425781 L 121.6875 150.421875 C 122.621094 150.433594 122.621094 150.433594 123 150.632812 C 123.296875 150.871094 123.496094 151.136719 123.707031 151.453125 C 123.871094 151.921875 123.914062 152.183594 123.839844 152.675781 C 123.402344 153.710938 122.582031 154.535156 121.847656 155.367188 C 121.59375 155.660156 121.347656 155.957031 121.105469 156.257812 L 120.847656 156.574219 C 120.65625 156.804688 120.472656 157.039062 120.285156 157.273438 C 120.1875 157.394531 120.089844 157.519531 119.988281 157.644531 L 119.722656 157.980469 L 119.5 158.222656 L 119.257812 158.222656 L 119.015625 158.828125 L 118.773438 158.828125 L 118.707031 159.078125 C 118.542969 159.410156 118.425781 159.550781 118.164062 159.800781 C 117.667969 160.273438 117.28125 160.8125 116.875 161.363281 C 116.5625 161.773438 116.230469 162.152344 115.882812 162.535156 C 115.3125 163.171875 114.78125 163.84375 114.25 164.515625 L 113.957031 164.882812 L 113.691406 165.21875 L 113.46875 165.460938 L 113.226562 165.460938 L 113.152344 165.710938 C 112.933594 166.175781 112.636719 166.558594 112.261719 166.910156 L 112.019531 166.910156 L 111.929688 167.175781 C 111.761719 167.550781 111.570312 167.773438 111.289062 168.070312 C 110.800781 168.597656 110.339844 169.140625 109.886719 169.699219 C 109.191406 170.558594 108.484375 171.414062 107.746094 172.238281 C 107.546875 172.464844 107.546875 172.464844 107.34375 172.75 C 107.027344 173.117188 106.671875 173.390625 106.273438 173.664062 L 106.046875 173.824219 C 105.058594 174.503906 104.167969 174.9375 102.972656 175.113281 C 102.457031 175.144531 101.945312 175.144531 101.429688 175.140625 L 100.976562 175.140625 C 100.570312 175.140625 100.164062 175.136719 99.757812 175.136719 C 99.332031 175.136719 98.90625 175.136719 98.480469 175.132812 C 97.671875 175.132812 96.867188 175.132812 96.0625 175.128906 C 95.144531 175.125 94.226562 175.125 93.3125 175.125 C 91.425781 175.121094 89.539062 175.117188 87.652344 175.113281 L 87.652344 174.871094 L 87.433594 174.78125 C 87.132812 174.605469 86.996094 174.441406 86.808594 174.148438 C 86.644531 173.648438 86.605469 173.222656 86.6875 172.699219 C 87.078125 171.8125 87.863281 171.070312 88.496094 170.34375 C 88.808594 169.988281 89.113281 169.625 89.410156 169.253906 C 89.804688 168.769531 90.203125 168.289062 90.609375 167.8125 C 91.015625 167.335938 91.417969 166.851562 91.816406 166.367188 C 92.265625 165.8125 92.726562 165.265625 93.191406 164.71875 C 93.539062 164.308594 93.882812 163.894531 94.21875 163.480469 C 94.636719 162.96875 95.0625 162.464844 95.496094 161.964844 C 96.109375 161.25 96.710938 160.523438 97.304688 159.792969 C 97.921875 159.03125 98.546875 158.277344 99.179688 157.53125 C 99.644531 156.984375 100.105469 156.429688 100.558594 155.871094 C 100.902344 155.457031 101.246094 155.039062 101.589844 154.621094 C 103.050781 152.851562 104.460938 151.464844 106.640625 150.636719 C 107.324219 150.429688 107.972656 150.421875 108.679688 150.425781 " fill-opacity="1" fill-rule="nonzero"/></svg>