<svg xmlns="http://www.w3.org/2000/svg" xmlns:xlink="http://www.w3.org/1999/xlink" width="750" zoomAndPan="magnify" viewBox="0 0 562.5 186.749996" height="249" preserveAspectRatio="xMidYMid meet" version="1.2"><defs><clipPath id="f274ee9210"><path d="M 194.710938 6.601562 L 295.28125 6.601562 L 295.28125 180.835938 L 194.710938 180.835938 Z M 194.710938 6.601562 "/></clipPath></defs><g id="1e2bb4897b"><g clip-rule="nonzero" clip-path="url(#f274ee9210)"><path style=" stroke:none;fill-rule:nonzero;fill:#a6a6a6;fill-opacity:1;" d="M 259.246094 6.820312 C 261.402344 6.578125 263.605469 6.753906 265.78125 6.710938 C 273.246094 6.777344 280.730469 6.578125 288.195312 6.777344 C 287.398438 9.945312 285.636719 12.976562 283.964844 15.757812 C 273.992188 32.433594 264.289062 49.261719 254.195312 65.871094 C 246.101562 79.242188 238.242188 92.707031 230.390625 106.226562 C 229.394531 108.054688 227.847656 109.914062 227.511719 111.972656 C 228.140625 112.167969 228.757812 112.34375 229.421875 112.328125 C 237.503906 112.167969 245.597656 112.234375 253.683594 112.261719 C 254.453125 112.277344 255.199219 112.144531 255.945312 111.984375 C 256.03125 110.945312 256.097656 109.90625 256.089844 108.859375 C 256.011719 101.226562 256.089844 93.585938 256.046875 85.953125 C 256.089844 85.265625 256.039062 84.394531 256.40625 83.789062 C 257.042969 83.261719 258.242188 83.414062 259.027344 83.371094 C 264.566406 83.554688 270.105469 83.566406 275.644531 83.621094 C 278.023438 83.65625 280.367188 83.488281 282.730469 83.839844 C 282.917969 86.203125 282.773438 88.542969 282.796875 90.914062 C 282.796875 96.894531 282.789062 102.882812 282.757812 108.867188 C 282.78125 109.820312 282.742188 110.871094 283.050781 111.789062 C 283.636719 112.316406 284.316406 112.261719 285.0625 112.308594 C 287.3125 112.351562 289.578125 112.167969 291.824219 112.285156 C 292.953125 112.359375 294.144531 112.667969 295.039062 113.390625 C 295.238281 114.238281 295.214844 115.175781 295.214844 116.039062 C 295.113281 120.371094 295.140625 124.710938 295.066406 129.050781 C 295.007812 131.4375 295.164062 133.765625 294.871094 136.136719 C 291.421875 136.398438 288.066406 136.097656 284.609375 136.203125 C 283.90625 136.261719 283.367188 136.195312 282.914062 136.832031 C 282.699219 137.644531 282.707031 138.527344 282.691406 139.363281 C 282.800781 152.234375 282.699219 165.109375 282.757812 177.980469 C 282.699219 178.765625 282.855469 179.957031 282.238281 180.542969 C 280.378906 180.828125 278.417969 180.558594 276.546875 180.550781 C 271.460938 180.492188 266.371094 180.457031 261.285156 180.535156 C 259.851562 180.535156 258.367188 180.734375 256.941406 180.574219 C 256.023438 179.886719 256.238281 178.085938 256.140625 177.066406 C 256.15625 164.496094 256.105469 151.921875 256.222656 139.347656 C 256.207031 138.582031 256.207031 137.769531 256.03125 137.015625 C 255.292969 135.976562 253.878906 136.3125 252.777344 136.230469 C 240.355469 136.390625 227.9375 136.332031 215.519531 136.4375 C 208.8125 136.4375 202.050781 136.675781 195.363281 136.203125 C 194.8125 134.546875 195.003906 133.019531 194.960938 131.296875 C 194.96875 125.757812 194.800781 120.210938 194.828125 114.671875 C 194.785156 112.511719 196.042969 111.035156 197.070312 109.253906 C 217.039062 75.816406 236.988281 42.359375 256.917969 8.890625 C 257.488281 8.019531 258.089844 6.921875 259.246094 6.820312 Z M 259.246094 6.820312 "/></g><path style=" stroke:none;fill-rule:nonzero;fill:#ff3131;fill-opacity:1;" d="M 95.800781 81.183594 L 75.601562 146.199219 L 64.683594 146.199219 L 50.457031 101.761719 C 50.0625 100.691406 49.703125 99.375 49.371094 97.808594 C 49.195312 98.570312 49.023438 99.289062 48.847656 99.945312 C 48.671875 100.589844 48.472656 101.199219 48.261719 101.761719 L 33.917969 146.199219 L 22.9375 146.199219 L 2.800781 81.183594 L 12.925781 81.183594 C 13.960938 81.183594 14.832031 81.4375 15.53125 81.941406 C 16.25 82.433594 16.734375 83.097656 16.96875 83.933594 L 28.03125 122.808594 C 28.265625 123.765625 28.488281 124.8125 28.707031 125.941406 C 28.941406 127.074219 29.175781 128.253906 29.410156 129.484375 C 29.65625 128.214844 29.921875 127.023438 30.199219 125.910156 C 30.492188 124.800781 30.800781 123.765625 31.136719 122.808594 L 43.898438 83.933594 C 44.132812 83.230469 44.601562 82.601562 45.304688 82.03125 C 46.007812 81.46875 46.871094 81.183594 47.910156 81.183594 L 51.453125 81.183594 C 52.503906 81.183594 53.355469 81.4375 53.996094 81.941406 C 54.65625 82.457031 55.15625 83.113281 55.492188 83.933594 L 68.226562 122.808594 C 68.847656 124.683594 69.410156 126.832031 69.921875 129.25 C 70.3125 126.890625 70.75 124.742188 71.238281 122.808594 L 82.304688 83.933594 C 82.480469 83.171875 82.925781 82.527344 83.652344 82 C 84.390625 81.460938 85.269531 81.183594 86.285156 81.183594 Z M 95.800781 81.183594 "/><path style=" stroke:none;fill-rule:nonzero;fill:#ff3131;fill-opacity:1;" d="M 126.261719 117.832031 C 126.261719 116.390625 126.054688 115.035156 125.644531 113.761719 C 125.234375 112.476562 124.621094 111.355469 123.800781 110.398438 C 122.996094 109.445312 121.972656 108.691406 120.726562 108.140625 C 119.496094 107.578125 118.046875 107.292969 116.394531 107.292969 C 113.1875 107.292969 110.664062 108.214844 108.8125 110.046875 C 106.976562 111.882812 105.804688 114.480469 105.300781 117.832031 Z M 105.066406 124.535156 C 105.242188 126.898438 105.660156 128.949219 106.324219 130.683594 C 106.984375 132.402344 107.855469 133.828125 108.929688 134.957031 C 110.019531 136.070312 111.308594 136.910156 112.792969 137.472656 C 114.273438 138.023438 115.910156 138.292969 117.710938 138.292969 C 119.503906 138.292969 121.054688 138.089844 122.367188 137.679688 C 123.667969 137.253906 124.804688 136.785156 125.761719 136.273438 C 126.734375 135.746094 127.589844 135.277344 128.339844 134.867188 C 129.078125 134.445312 129.789062 134.226562 130.476562 134.226562 C 131.410156 134.226562 132.101562 134.578125 132.554688 135.277344 L 135.746094 139.320312 C 134.515625 140.769531 133.125 141.976562 131.585938 142.949219 C 130.066406 143.929688 128.46875 144.703125 126.816406 145.289062 C 125.15625 145.859375 123.457031 146.257812 121.722656 146.492188 C 120.003906 146.738281 118.335938 146.871094 116.714844 146.871094 C 113.511719 146.871094 110.527344 146.34375 107.757812 145.289062 C 105.007812 144.222656 102.605469 142.640625 100.558594 140.546875 C 98.523438 138.460938 96.929688 135.886719 95.757812 132.820312 C 94.585938 129.761719 94 126.195312 94 122.136719 C 94 118.996094 94.503906 116.039062 95.523438 113.265625 C 96.554688 110.5 98.019531 108.082031 99.914062 106.035156 C 101.824219 103.972656 104.144531 102.339844 106.882812 101.144531 C 109.632812 99.9375 112.734375 99.332031 116.191406 99.332031 C 119.09375 99.332031 121.78125 99.800781 124.238281 100.738281 C 126.699219 101.671875 128.804688 103.042969 130.5625 104.835938 C 132.335938 106.613281 133.722656 108.800781 134.71875 111.390625 C 135.730469 113.96875 136.242188 116.925781 136.242188 120.261719 C 136.242188 121.945312 136.050781 123.070312 135.6875 123.65625 C 135.335938 124.242188 134.648438 124.535156 133.636719 124.535156 Z M 105.066406 124.535156 "/><path style=" stroke:none;fill-rule:nonzero;fill:#ff3131;fill-opacity:1;" d="M 155.652344 134.226562 C 156.894531 135.769531 158.265625 136.851562 159.75 137.472656 C 161.226562 138.105469 162.800781 138.410156 164.464844 138.410156 C 166.160156 138.410156 167.691406 138.109375 169.058594 137.503906 C 170.421875 136.882812 171.582031 135.921875 172.542969 134.636719 C 173.492188 133.332031 174.226562 131.664062 174.738281 129.628906 C 175.265625 127.601562 175.527344 125.179688 175.527344 122.371094 C 175.527344 117.296875 174.6875 113.632812 173.011719 111.363281 C 171.328125 109.101562 168.914062 107.96875 165.75 107.96875 C 163.621094 107.96875 161.769531 108.457031 160.1875 109.429688 C 158.609375 110.410156 157.09375 111.785156 155.652344 113.558594 Z M 155.652344 105.742188 C 157.503906 103.796875 159.558594 102.242188 161.828125 101.085938 C 164.089844 99.917969 166.671875 99.332031 169.585938 99.332031 C 172.257812 99.332031 174.65625 99.859375 176.785156 100.910156 C 178.929688 101.964844 180.753906 103.480469 182.261719 105.449219 C 183.785156 107.402344 184.941406 109.773438 185.746094 112.5625 C 186.5625 115.359375 186.972656 118.492188 186.972656 121.960938 C 186.972656 125.707031 186.503906 129.117188 185.570312 132.175781 C 184.648438 135.21875 183.320312 137.839844 181.585938 140.019531 C 179.867188 142.1875 177.796875 143.878906 175.382812 145.085938 C 172.960938 146.269531 170.265625 146.871094 167.300781 146.871094 C 165.851562 146.871094 164.550781 146.726562 163.378906 146.433594 C 162.207031 146.160156 161.125 145.773438 160.128906 145.261719 C 159.148438 144.757812 158.242188 144.132812 157.40625 143.386719 C 156.589844 142.648438 155.804688 141.828125 155.066406 140.929688 L 154.570312 144.03125 C 154.394531 144.816406 154.078125 145.371094 153.632812 145.699219 C 153.199219 146.035156 152.613281 146.199219 151.875 146.199219 L 144.527344 146.199219 L 144.527344 79.394531 L 155.652344 79.394531 Z M 155.652344 105.742188 "/><path style=" stroke:none;fill-rule:nonzero;fill:#004aad;fill-opacity:1;" d="M 330.886719 136.742188 C 333.125 136.742188 335.015625 136.480469 336.535156 135.953125 C 338.074219 135.410156 339.304688 134.6875 340.226562 133.785156 C 341.140625 132.894531 341.792969 131.847656 342.1875 130.652344 C 342.597656 129.445312 342.800781 128.164062 342.800781 126.820312 C 342.800781 125.414062 342.574219 124.15625 342.128906 123.042969 C 341.675781 121.914062 340.972656 120.949219 340.019531 120.144531 C 339.0625 119.347656 337.824219 118.738281 336.300781 118.328125 C 334.796875 117.90625 332.980469 117.6875 330.859375 117.6875 L 318.652344 117.6875 L 318.652344 136.742188 Z M 318.652344 90.519531 L 318.652344 109.3125 L 328.28125 109.3125 C 332.417969 109.3125 335.542969 108.574219 337.648438 107.089844 C 339.769531 105.589844 340.839844 103.195312 340.839844 99.917969 C 340.839844 96.542969 339.875 94.136719 337.941406 92.6875 C 336.023438 91.246094 333.03125 90.519531 328.953125 90.519531 Z M 328.953125 81.183594 C 333.207031 81.183594 336.84375 81.589844 339.875 82.410156 C 342.917969 83.214844 345.40625 84.367188 347.339844 85.867188 C 349.269531 87.351562 350.683594 89.167969 351.582031 91.308594 C 352.476562 93.441406 352.929688 95.832031 352.929688 98.480469 C 352.929688 100.027344 352.703125 101.488281 352.257812 102.875 C 351.804688 104.265625 351.101562 105.566406 350.148438 106.796875 C 349.210938 108.011719 348.011719 109.109375 346.546875 110.105469 C 345.097656 111.085938 343.371094 111.917969 341.367188 112.621094 C 350.300781 114.632812 354.773438 119.457031 354.773438 127.082031 C 354.773438 129.855469 354.246094 132.410156 353.191406 134.753906 C 352.140625 137.078125 350.601562 139.085938 348.597656 140.78125 C 346.605469 142.480469 344.132812 143.8125 341.191406 144.761719 C 338.242188 145.722656 334.882812 146.199219 331.121094 146.199219 L 306.5625 146.199219 L 306.5625 81.183594 Z M 328.953125 81.183594 "/><path style=" stroke:none;fill-rule:nonzero;fill:#004aad;fill-opacity:1;" d="M 374.730469 100.0625 L 374.730469 146.199219 L 363.578125 146.199219 L 363.578125 100.0625 Z M 376.253906 86.625 C 376.253906 87.585938 376.054688 88.484375 375.667969 89.320312 C 375.273438 90.160156 374.761719 90.894531 374.117188 91.515625 C 373.472656 92.144531 372.710938 92.648438 371.832031 93.039062 C 370.96875 93.410156 370.046875 93.59375 369.054688 93.59375 C 368.09375 93.59375 367.1875 93.410156 366.332031 93.039062 C 365.464844 92.648438 364.726562 92.144531 364.105469 91.515625 C 363.476562 90.894531 362.972656 90.160156 362.582031 89.320312 C 362.210938 88.484375 362.027344 87.585938 362.027344 86.625 C 362.027344 85.632812 362.210938 84.710938 362.582031 83.84375 C 362.972656 82.96875 363.476562 82.222656 364.105469 81.589844 C 364.726562 80.96875 365.464844 80.472656 366.332031 80.097656 C 367.1875 79.710938 368.09375 79.511719 369.054688 79.511719 C 370.046875 79.511719 370.96875 79.710938 371.832031 80.097656 C 372.710938 80.472656 373.472656 80.96875 374.117188 81.589844 C 374.761719 82.222656 375.273438 82.96875 375.667969 83.84375 C 376.054688 84.710938 376.253906 85.632812 376.253906 86.625 Z M 376.253906 86.625 "/><path style=" stroke:none;fill-rule:nonzero;fill:#004aad;fill-opacity:1;" d="M 419.171875 104.660156 C 419.171875 105.441406 419.03125 106.203125 418.761719 106.941406 C 418.503906 107.6875 418.152344 108.304688 417.707031 108.785156 L 395.8125 137.648438 L 418.5 137.648438 L 418.5 146.199219 L 382.902344 146.199219 L 382.902344 141.574219 C 382.902344 141.066406 383.019531 140.460938 383.253906 139.757812 C 383.488281 139.039062 383.847656 138.367188 384.335938 137.738281 L 406.46875 108.550781 L 384.191406 108.550781 L 384.191406 100.0625 L 419.171875 100.0625 Z M 419.171875 104.660156 "/><path style=" stroke:none;fill-rule:nonzero;fill:#004aad;fill-opacity:1;" d="M 437.738281 105.742188 C 438.675781 104.804688 439.65625 103.949219 440.695312 103.167969 C 441.726562 102.367188 442.816406 101.695312 443.972656 101.144531 C 445.121094 100.582031 446.351562 100.144531 447.660156 99.828125 C 448.984375 99.5 450.429688 99.332031 451.992188 99.332031 C 454.511719 99.332031 456.742188 99.761719 458.699219 100.621094 C 460.644531 101.484375 462.269531 102.683594 463.558594 104.21875 C 464.859375 105.765625 465.855469 107.609375 466.542969 109.753906 C 467.222656 111.902344 467.566406 114.261719 467.566406 116.835938 L 467.566406 146.199219 L 456.445312 146.199219 L 456.445312 116.835938 C 456.445312 114.027344 455.800781 111.851562 454.511719 110.308594 C 453.222656 108.75 451.261719 107.96875 448.628906 107.96875 C 446.710938 107.96875 444.917969 108.40625 443.242188 109.285156 C 441.558594 110.148438 439.96875 111.324219 438.46875 112.828125 L 438.46875 146.199219 L 427.347656 146.199219 L 427.347656 100.0625 L 434.136719 100.0625 C 435.578125 100.0625 436.523438 100.738281 436.976562 102.082031 Z M 437.738281 105.742188 "/><path style=" stroke:none;fill-rule:nonzero;fill:#004aad;fill-opacity:1;" d="M 507.792969 117.832031 C 507.792969 116.390625 507.589844 115.035156 507.179688 113.761719 C 506.769531 112.476562 506.15625 111.355469 505.335938 110.398438 C 504.53125 109.445312 503.503906 108.691406 502.261719 108.140625 C 501.03125 107.578125 499.582031 107.292969 497.929688 107.292969 C 494.722656 107.292969 492.199219 108.214844 490.347656 110.046875 C 488.511719 111.882812 487.339844 114.480469 486.835938 117.832031 Z M 486.601562 124.535156 C 486.777344 126.898438 487.191406 128.949219 487.859375 130.683594 C 488.519531 132.402344 489.390625 133.828125 490.464844 134.957031 C 491.554688 136.070312 492.84375 136.910156 494.328125 137.472656 C 495.808594 138.023438 497.445312 138.292969 499.246094 138.292969 C 501.039062 138.292969 502.589844 138.089844 503.902344 137.679688 C 505.203125 137.253906 506.339844 136.785156 507.296875 136.273438 C 508.269531 135.746094 509.125 135.277344 509.871094 134.867188 C 510.613281 134.445312 511.320312 134.226562 512.007812 134.226562 C 512.945312 134.226562 513.632812 134.578125 514.089844 135.277344 L 517.277344 139.320312 C 516.050781 140.769531 514.660156 141.976562 513.121094 142.949219 C 511.601562 143.929688 510.003906 144.703125 508.351562 145.289062 C 506.6875 145.859375 504.992188 146.257812 503.257812 146.492188 C 501.539062 146.738281 499.867188 146.871094 498.25 146.871094 C 495.046875 146.871094 492.058594 146.34375 489.292969 145.289062 C 486.542969 144.222656 484.140625 142.640625 482.09375 140.546875 C 480.058594 138.460938 478.460938 135.886719 477.292969 132.820312 C 476.121094 129.761719 475.535156 126.195312 475.535156 122.136719 C 475.535156 118.996094 476.039062 116.039062 477.058594 113.265625 C 478.089844 110.5 479.554688 108.082031 481.449219 106.035156 C 483.359375 103.972656 485.679688 102.339844 488.414062 101.144531 C 491.167969 99.9375 494.269531 99.332031 497.722656 99.332031 C 500.628906 99.332031 503.316406 99.800781 505.773438 100.738281 C 508.234375 101.671875 510.339844 103.042969 512.097656 104.835938 C 513.867188 106.613281 515.257812 108.800781 516.253906 111.390625 C 517.265625 113.96875 517.777344 116.925781 517.777344 120.261719 C 517.777344 121.945312 517.585938 123.070312 517.21875 123.65625 C 516.867188 124.242188 516.179688 124.535156 515.171875 124.535156 Z M 486.601562 124.535156 "/><path style=" stroke:none;fill-rule:nonzero;fill:#004aad;fill-opacity:1;" d="M 554.222656 109.050781 C 553.929688 109.539062 553.617188 109.882812 553.285156 110.074219 C 552.949219 110.273438 552.53125 110.367188 552.027344 110.367188 C 551.480469 110.367188 550.894531 110.222656 550.269531 109.929688 C 549.664062 109.621094 548.953125 109.277344 548.132812 108.902344 C 547.328125 108.539062 546.414062 108.199219 545.382812 107.910156 C 544.34375 107.601562 543.128906 107.441406 541.722656 107.441406 C 539.535156 107.441406 537.816406 107.910156 536.570312 108.84375 C 535.320312 109.765625 534.699219 110.976562 534.699219 112.476562 C 534.699219 113.46875 535.019531 114.3125 535.664062 114.992188 C 536.308594 115.660156 537.15625 116.242188 538.210938 116.75 C 539.277344 117.261719 540.492188 117.714844 541.839844 118.125 C 543.203125 118.535156 544.578125 118.988281 545.96875 119.472656 C 547.351562 119.941406 548.71875 120.488281 550.066406 121.109375 C 551.425781 121.71875 552.640625 122.488281 553.695312 123.421875 C 554.765625 124.359375 555.628906 125.496094 556.273438 126.820312 C 556.917969 128.152344 557.238281 129.738281 557.238281 131.589844 C 557.238281 133.800781 556.835938 135.835938 556.039062 137.707031 C 555.234375 139.582031 554.054688 141.207031 552.496094 142.566406 C 550.953125 143.9375 549.027344 145.011719 546.730469 145.789062 C 544.445312 146.550781 541.796875 146.929688 538.796875 146.929688 C 537.214844 146.929688 535.664062 146.785156 534.140625 146.492188 C 532.632812 146.199219 531.183594 145.800781 529.78125 145.289062 C 528.390625 144.785156 527.101562 144.191406 525.914062 143.503906 C 524.722656 142.824219 523.675781 142.070312 522.785156 141.25 L 525.359375 137.035156 C 525.6875 136.53125 526.078125 136.140625 526.53125 135.863281 C 526.976562 135.59375 527.539062 135.453125 528.226562 135.453125 C 528.910156 135.453125 529.554688 135.652344 530.160156 136.039062 C 530.78125 136.433594 531.492188 136.851562 532.296875 137.296875 C 533.117188 137.753906 534.070312 138.167969 535.167969 138.558594 C 536.257812 138.953125 537.65625 139.144531 539.351562 139.144531 C 540.65625 139.144531 541.78125 138.988281 542.71875 138.675781 C 543.671875 138.367188 544.453125 137.957031 545.0625 137.445312 C 545.683594 136.917969 546.128906 136.324219 546.40625 135.660156 C 546.699219 134.980469 546.847656 134.277344 546.847656 133.550781 C 546.847656 132.484375 546.523438 131.605469 545.878906 130.917969 C 545.234375 130.214844 544.371094 129.613281 543.304688 129.101562 C 542.25 128.597656 541.035156 128.152344 539.675781 127.753906 C 538.304688 127.347656 536.90625 126.90625 535.488281 126.4375 C 534.0625 125.957031 532.664062 125.382812 531.300781 124.742188 C 529.933594 124.097656 528.710938 123.277344 527.644531 122.28125 C 526.589844 121.285156 525.738281 120.078125 525.097656 118.652344 C 524.453125 117.210938 524.128906 115.460938 524.128906 113.410156 C 524.128906 111.523438 524.496094 109.722656 525.242188 108.027344 C 526.003906 106.3125 527.101562 104.820312 528.550781 103.546875 C 530.015625 102.28125 531.828125 101.261719 533.996094 100.503906 C 536.175781 99.726562 538.695312 99.332031 541.546875 99.332031 C 544.722656 99.332031 547.613281 99.859375 550.210938 100.910156 C 552.824219 101.964844 555 103.355469 556.742188 105.070312 Z M 554.222656 109.050781 "/></g></svg>