<svg xmlns="http://www.w3.org/2000/svg" xmlns:xlink="http://www.w3.org/1999/xlink" width="48"
    zoomAndPan="magnify" viewBox="0 0 375 374.999991" height="48"
    preserveAspectRatio="xMidYMid meet" version="1.0">
    <path fill="currentColor"
        d="M 179.480469 3.359375 L 180.5625 3.355469 L 181.714844 3.359375 L 182.914062 3.355469 C 183.75 3.355469 184.585938 3.359375 185.417969 3.359375 C 186.695312 3.363281 187.96875 3.359375 189.246094 3.355469 C 190.054688 3.355469 190.867188 3.355469 191.679688 3.359375 L 192.832031 3.355469 C 194.632812 3.363281 196.3125 3.441406 198.085938 3.789062 C 198.859375 3.824219 199.628906 3.855469 200.402344 3.878906 C 204.15625 3.992188 207.859375 4.398438 211.578125 4.898438 L 213.035156 5.09375 C 215.648438 5.457031 218.230469 5.890625 220.8125 6.4375 L 223.179688 6.917969 C 234.5625 9.257812 245.648438 12.664062 256.414062 17.042969 L 257.628906 17.535156 C 258.742188 17.996094 259.851562 18.464844 260.957031 18.9375 L 261.660156 19.234375 C 264.945312 20.621094 268.109375 22.121094 271.234375 23.851562 C 272.367188 24.46875 273.511719 25.0625 274.65625 25.660156 C 279.261719 28.058594 283.597656 30.714844 287.902344 33.613281 C 288.984375 34.34375 290.074219 35.066406 291.164062 35.792969 L 294.289062 37.875 L 294.289062 38.632812 L 295 38.796875 C 295.804688 39.011719 295.804688 39.011719 296.5625 39.390625 L 296.5625 40.148438 L 297.4375 40.480469 C 298.453125 40.90625 298.453125 40.90625 299.589844 41.664062 L 299.589844 42.421875 L 300.347656 42.421875 L 300.347656 43.175781 L 301.011719 43.296875 C 302 43.597656 302.613281 44.007812 303.378906 44.691406 L 303.378906 45.449219 L 304.113281 45.734375 L 304.894531 46.207031 C 305.179688 47.011719 305.179688 47.011719 305.273438 47.722656 L 306.03125 47.722656 L 306.03125 48.480469 L 306.929688 48.644531 C 307.921875 48.859375 307.921875 48.859375 308.679688 49.238281 L 308.679688 49.996094 L 309.4375 49.996094 L 309.4375 50.753906 L 310.195312 50.753906 L 310.195312 51.511719 L 311.03125 51.78125 C 312.257812 52.34375 312.941406 53.015625 313.863281 53.996094 C 314.945312 55.183594 314.945312 55.183594 316.257812 56.054688 L 316.257812 56.8125 L 317.015625 56.8125 L 317.015625 57.570312 L 317.769531 57.570312 L 317.769531 58.328125 L 318.527344 58.328125 L 318.527344 59.085938 L 319.285156 59.085938 L 319.285156 59.84375 L 320.042969 59.84375 L 320.042969 60.601562 L 320.800781 60.601562 C 321.414062 61.222656 321.414062 61.222656 322.101562 62.042969 C 323.058594 63.179688 323.058594 63.179688 324.105469 64.226562 L 324.589844 64.765625 L 324.589844 65.902344 L 325.347656 65.902344 L 325.347656 66.660156 L 326.105469 66.660156 L 326.105469 67.417969 L 326.859375 67.417969 C 327.667969 68.292969 327.667969 68.292969 328.375 69.3125 L 328.375 70.449219 L 329.132812 70.449219 L 329.132812 71.203125 L 329.890625 71.203125 L 329.890625 71.960938 L 330.648438 71.960938 C 331.453125 72.839844 331.453125 72.839844 332.164062 73.855469 L 332.164062 74.992188 L 332.921875 74.992188 L 332.921875 75.75 L 333.679688 75.75 L 334.4375 76.886719 L 334.4375 78.023438 L 335.195312 78.023438 L 335.195312 78.78125 L 335.953125 78.78125 L 336.707031 79.917969 L 336.707031 81.050781 L 337.464844 81.050781 L 337.464844 81.808594 L 338.222656 81.808594 L 338.980469 82.945312 L 338.980469 84.082031 L 339.738281 84.082031 L 340.496094 85.21875 L 340.496094 86.355469 L 341.253906 86.355469 L 342.011719 87.492188 L 342.011719 88.628906 L 342.769531 88.628906 L 342.390625 90.140625 L 343.527344 90.519531 C 344.550781 91.375 345.183594 92.378906 345.796875 93.550781 L 345.796875 94.6875 L 346.554688 94.6875 C 347.738281 96.648438 347.738281 96.648438 348.070312 97.339844 L 348.070312 98.476562 L 348.828125 98.476562 L 348.828125 99.988281 L 349.585938 99.988281 L 349.585938 101.503906 L 350.34375 101.503906 C 351.234375 103.164062 352.121094 104.828125 353.003906 106.492188 C 353.304688 107.054688 353.605469 107.613281 353.914062 108.171875 C 354.492188 109.261719 354.878906 110.113281 354.984375 111.351562 L 354.890625 112.109375 L 355.644531 112.109375 L 355.644531 113.625 L 356.402344 113.625 L 356.402344 115.140625 L 357.160156 115.140625 C 357.769531 116.46875 358.003906 117.46875 357.917969 118.925781 L 358.675781 118.925781 L 358.675781 120.441406 L 359.433594 120.441406 L 359.433594 122.714844 L 360.191406 122.714844 C 360.796875 124.042969 361.03125 125.042969 360.949219 126.503906 L 361.707031 126.503906 L 361.707031 128.773438 L 362.464844 128.773438 L 362.464844 131.046875 L 363.222656 131.046875 L 363.222656 133.320312 L 363.980469 133.320312 L 363.980469 136.351562 L 364.734375 136.351562 L 364.734375 138.621094 L 365.492188 138.621094 L 365.492188 141.652344 L 366.25 141.652344 L 366.25 144.683594 L 367.007812 144.683594 L 367.007812 147.710938 L 367.765625 147.710938 L 367.765625 150.742188 L 368.523438 150.742188 C 369.21875 153.550781 369.371094 156.1875 369.28125 159.074219 L 370.039062 159.074219 C 372.578125 175.832031 372.871094 192.5625 371.554688 209.449219 L 370.796875 209.449219 L 370.796875 214.371094 L 369.660156 214.371094 C 369.695312 214.761719 369.730469 215.152344 369.769531 215.550781 C 370.03125 218.695312 370.074219 221.507812 369.28125 224.597656 L 368.523438 224.597656 L 368.523438 228.386719 L 367.765625 228.386719 L 367.765625 231.039062 L 366.628906 231.039062 L 366.726562 231.851562 L 366.960938 233.960938 L 367.007812 234.824219 L 366.628906 235.203125 L 366.464844 236.386719 C 366.253906 237.832031 365.921875 239.113281 365.492188 240.507812 L 364.734375 240.507812 L 364.785156 241.664062 C 364.734375 243.226562 364.457031 244.339844 363.980469 245.808594 L 363.222656 245.808594 L 363.222656 248.082031 L 362.464844 248.082031 L 362.535156 248.863281 C 362.445312 250.289062 361.917969 251.332031 361.328125 252.625 C 361.1875 253.128906 361.050781 253.628906 360.949219 254.140625 L 360.191406 254.140625 L 360.191406 256.414062 L 359.433594 256.414062 L 359.480469 257.242188 C 359.429688 258.386719 359.148438 259.167969 358.675781 260.203125 L 357.917969 260.203125 L 357.988281 261.03125 C 357.90625 262.308594 357.464844 262.921875 356.78125 263.988281 C 356.519531 264.820312 356.519531 264.820312 356.402344 265.503906 L 355.644531 265.503906 L 355.644531 267.019531 L 354.890625 267.019531 L 354.890625 268.535156 L 354.132812 268.535156 L 354.21875 269.308594 C 354.101562 270.8125 353.445312 271.910156 352.710938 273.199219 C 352.433594 273.699219 352.152344 274.203125 351.875 274.710938 L 351.46875 275.4375 C 350.800781 276.652344 350.195312 277.894531 349.585938 279.140625 L 348.828125 279.140625 L 348.828125 280.652344 L 348.070312 280.652344 L 348.070312 281.789062 L 347.3125 282.546875 L 346.175781 282.546875 L 346.554688 284.441406 L 345.796875 284.441406 L 345.796875 285.957031 L 345.042969 285.957031 L 344.875 286.667969 C 344.664062 287.472656 344.664062 287.472656 344.285156 288.230469 L 343.527344 288.230469 L 343.359375 288.9375 C 343.148438 289.742188 343.148438 289.742188 342.769531 290.5 L 342.011719 290.5 L 341.84375 291.210938 C 341.632812 292.015625 341.632812 292.015625 341.253906 292.773438 L 340.496094 292.773438 L 340.332031 293.484375 C 340.117188 294.289062 340.117188 294.289062 339.738281 295.046875 L 338.980469 295.046875 L 338.816406 295.757812 C 338.601562 296.5625 338.601562 296.5625 338.222656 297.320312 L 337.464844 297.320312 L 337.300781 298.027344 C 337.085938 298.832031 337.085938 298.832031 336.707031 299.589844 L 335.953125 299.589844 L 335.621094 300.46875 C 335.195312 301.484375 335.195312 301.484375 334.4375 302.621094 L 333.679688 302.621094 L 333.679688 303.378906 L 332.921875 303.378906 L 332.800781 304.042969 C 332.5 305.027344 332.089844 305.640625 331.40625 306.410156 L 330.648438 306.410156 L 330.648438 307.167969 L 329.890625 307.167969 L 329.605469 307.996094 C 329.085938 309.164062 328.480469 310.011719 327.617188 310.953125 L 326.859375 310.953125 L 326.859375 311.710938 L 326.105469 311.710938 L 326.105469 312.46875 L 325.347656 312.46875 L 325.074219 313.105469 C 324.46875 314.199219 323.710938 315.011719 322.859375 315.925781 C 321.695312 317.132812 321.695312 317.132812 320.800781 318.527344 L 320.042969 318.527344 L 320.042969 319.285156 L 319.285156 319.285156 L 319.285156 320.042969 L 318.527344 320.042969 L 318.527344 320.800781 L 317.769531 320.800781 L 317.769531 321.558594 L 317.015625 321.558594 L 317.015625 322.316406 L 316.257812 322.316406 L 316.257812 323.074219 L 315.5 323.074219 L 315.5 323.832031 L 314.742188 323.832031 L 314.742188 324.589844 C 314.132812 325.203125 314.132812 325.203125 313.320312 325.890625 L 312.523438 326.574219 C 310.988281 327.832031 310.988281 327.832031 310.195312 328.375 L 309.4375 328.375 L 309.4375 329.132812 L 308.679688 329.132812 L 308.679688 329.890625 L 307.921875 329.890625 L 307.921875 330.648438 C 307.289062 331.21875 307.289062 331.21875 306.457031 331.832031 L 305.628906 332.449219 L 304.894531 332.921875 L 304.136719 332.921875 L 304.136719 333.679688 L 303.378906 333.679688 L 303.378906 334.4375 C 302.289062 335.242188 302.289062 335.242188 301.105469 335.953125 L 300.347656 335.953125 L 300.347656 336.707031 C 299.261719 337.511719 299.261719 337.511719 298.078125 338.222656 L 297.320312 338.222656 L 297.320312 338.980469 C 296.230469 339.785156 296.230469 339.785156 295.046875 340.496094 L 294.289062 340.496094 L 294.289062 341.253906 L 293.152344 342.011719 L 292.015625 342.011719 L 292.015625 342.769531 C 290.925781 343.574219 290.925781 343.574219 289.742188 344.285156 L 288.984375 344.285156 L 288.984375 345.042969 L 287.472656 345.042969 L 287.472656 345.796875 L 286.335938 346.554688 L 285.199219 346.554688 L 285.199219 347.3125 L 284.0625 348.070312 L 282.925781 348.070312 L 282.925781 348.828125 L 281.410156 348.828125 L 281.410156 349.585938 L 280.273438 350.34375 L 279.140625 350.34375 L 279.140625 351.101562 L 277.625 351.101562 L 277.625 351.859375 L 276.109375 351.859375 L 276.109375 352.617188 C 275.1875 353.125 274.261719 353.628906 273.339844 354.132812 L 272.546875 354.570312 C 270.554688 355.644531 270.554688 355.644531 269.292969 355.644531 L 269.292969 356.402344 L 268.640625 356.640625 L 267.800781 356.949219 L 266.960938 357.253906 C 266.269531 357.484375 266.269531 357.484375 265.882812 357.917969 C 265.25 357.933594 264.621094 357.933594 263.988281 357.917969 L 263.988281 358.675781 L 262.472656 358.675781 L 262.472656 359.433594 L 261.824219 359.667969 L 260.980469 359.976562 L 260.144531 360.285156 C 259.449219 360.515625 259.449219 360.515625 259.066406 360.949219 C 258.433594 360.964844 257.800781 360.964844 257.171875 360.949219 L 257.171875 361.707031 C 255.84375 362.3125 254.84375 362.546875 253.382812 362.464844 L 253.382812 363.222656 L 252.570312 363.457031 L 251.511719 363.765625 L 250.460938 364.070312 C 249.617188 364.277344 249.617188 364.277344 249.21875 364.734375 C 248.585938 364.75 247.953125 364.753906 247.324219 364.734375 L 247.324219 365.492188 L 245.050781 365.492188 L 245.050781 366.25 L 242.777344 366.25 L 242.777344 367.007812 L 241.796875 367.242188 L 240.53125 367.554688 L 239.265625 367.859375 C 238.273438 368.042969 238.273438 368.042969 237.855469 368.523438 C 236.972656 368.539062 236.085938 368.539062 235.203125 368.523438 L 235.203125 369.28125 C 233.125 369.988281 231.332031 370.128906 229.144531 370.039062 L 229.144531 370.796875 L 227.769531 370.9375 C 226.382812 371.109375 225.160156 371.464844 223.839844 371.933594 C 222.453125 372.269531 221.171875 372.351562 219.746094 372.335938 L 218.625 372.324219 L 217.78125 372.3125 L 217.78125 373.070312 L 212.101562 372.691406 L 212.480469 373.828125 L 207.175781 373.828125 L 207.175781 374.582031 C 200.683594 375.226562 194.242188 375.460938 187.722656 375.441406 C 186.246094 375.4375 184.773438 375.441406 183.296875 375.445312 C 177.828125 375.445312 172.457031 375.238281 167.027344 374.582031 L 166.648438 373.449219 C 166.210938 373.484375 165.769531 373.519531 165.316406 373.558594 C 161.894531 373.808594 158.644531 373.984375 155.289062 373.070312 L 154.910156 372.691406 C 154.398438 372.605469 153.886719 372.53125 153.371094 372.476562 L 151.878906 372.3125 L 151.5 371.175781 L 148.089844 371.554688 L 147.710938 370.417969 L 146.898438 370.511719 L 145.84375 370.628906 L 144.789062 370.75 L 143.925781 370.796875 L 143.546875 370.417969 C 142.714844 370.257812 141.886719 370.097656 141.054688 369.9375 C 139.386719 369.582031 137.738281 369.164062 136.089844 368.738281 L 135.164062 368.5 C 133.78125 368.136719 132.457031 367.75 131.148438 367.171875 C 130.035156 366.683594 129 366.351562 127.828125 366.0625 C 126.160156 365.648438 124.667969 365.042969 123.09375 364.359375 C 122.132812 363.988281 121.171875 363.625 120.207031 363.269531 L 118.609375 362.671875 C 117.839844 362.386719 117.074219 362.101562 116.304688 361.816406 C 115.640625 361.566406 114.976562 361.316406 114.3125 361.066406 L 113.160156 360.636719 C 112.109375 360.191406 111.191406 359.644531 110.214844 359.054688 C 109.675781 358.828125 109.132812 358.617188 108.582031 358.414062 C 105.996094 357.410156 103.550781 356.132812 101.082031 354.871094 C 100.089844 354.367188 99.09375 353.871094 98.097656 353.375 L 96.582031 352.617188 L 96.582031 351.859375 L 95.914062 351.710938 C 93.675781 351.101562 91.6875 349.777344 89.75 348.539062 C 88.640625 347.839844 87.5 347.199219 86.355469 346.554688 L 86.355469 345.421875 L 85.597656 345.421875 L 85.597656 344.664062 L 84.953125 344.917969 L 84.082031 345.042969 C 83.1875 344.609375 83.1875 344.609375 82.285156 343.976562 L 81.367188 343.351562 L 80.671875 342.769531 L 80.671875 342.011719 L 79.917969 342.011719 C 79.160156 341.253906 79.160156 341.253906 78.78125 340.117188 L 78.023438 340.117188 L 78.023438 339.359375 L 77.382812 339.644531 L 76.507812 339.738281 C 75.585938 339.097656 75.585938 339.097656 74.613281 338.222656 L 73.546875 337.441406 L 72.71875 336.707031 L 72.71875 335.574219 L 71.960938 335.574219 L 71.960938 334.816406 L 70.828125 335.195312 C 69.953125 334.621094 69.953125 334.621094 68.980469 333.796875 L 68.011719 332.988281 L 67.039062 332.164062 L 66.023438 331.351562 C 65.152344 330.65625 64.363281 329.976562 63.628906 329.132812 L 63.628906 327.996094 L 62.871094 327.996094 L 62.871094 327.238281 L 62.113281 327.238281 L 62.113281 326.484375 L 60.980469 326.859375 L 60.222656 326.484375 L 60.222656 325.726562 L 59.464844 325.726562 L 59.464844 324.96875 L 58.808594 324.683594 C 57.804688 324.128906 57.121094 323.480469 56.308594 322.671875 L 55.390625 321.757812 L 54.445312 320.800781 L 53.480469 319.84375 L 52.570312 318.929688 L 51.734375 318.09375 L 51.132812 317.390625 L 51.132812 316.636719 L 50.375 316.636719 L 50.375 315.878906 L 49.617188 315.878906 L 49.617188 315.121094 L 48.859375 314.742188 L 49.238281 313.605469 L 48.480469 313.605469 L 48.480469 312.847656 L 47.839844 312.800781 C 46.964844 312.46875 46.964844 312.46875 45.972656 311.332031 L 45.070312 310.195312 L 44.3125 309.816406 L 44.3125 309.058594 L 43.554688 309.058594 L 43.554688 308.300781 L 42.796875 308.300781 C 42.410156 307.675781 42.03125 307.046875 41.664062 306.410156 L 40.527344 305.273438 L 40.527344 304.515625 L 39.769531 304.515625 C 39.09375 303.515625 38.636719 302.632812 38.253906 301.484375 L 37.496094 301.105469 L 37.875 299.96875 L 35.980469 299.210938 L 35.980469 298.453125 L 35.222656 298.453125 C 34.828125 297.835938 34.449219 297.203125 34.085938 296.5625 L 33.378906 295.496094 L 32.574219 294.289062 L 32.042969 293.511719 L 31.507812 292.703125 L 31.003906 291.953125 L 30.679688 291.257812 L 31.058594 290.121094 L 30.15625 289.886719 L 29.164062 289.363281 C 28.667969 288.179688 28.667969 288.179688 28.40625 287.09375 L 27.648438 287.09375 C 27.394531 286.605469 27.140625 286.113281 26.890625 285.625 L 26.464844 284.800781 C 26.132812 284.0625 26.132812 284.0625 26.132812 283.304688 L 25.375 283.304688 C 24.996094 282.5625 24.617188 281.824219 24.238281 281.078125 L 23.601562 279.828125 C 23.105469 278.761719 23.105469 278.761719 23.105469 278.003906 L 22.347656 278.003906 L 22.347656 276.488281 L 21.589844 276.488281 C 21.207031 275.761719 20.828125 275.039062 20.453125 274.308594 L 19.8125 273.085938 C 19.316406 271.941406 19.316406 271.941406 19.316406 270.425781 L 18.558594 270.425781 L 18.558594 268.914062 L 17.800781 268.914062 C 17.492188 268.132812 17.183594 267.351562 16.878906 266.570312 L 16.359375 265.25 C 15.980469 264.1875 15.710938 263.203125 15.527344 262.09375 L 14.769531 262.09375 C 14.273438 260.722656 14.015625 259.785156 14.015625 258.308594 L 13.257812 258.308594 C 12.757812 256.9375 12.5 256 12.5 254.519531 L 11.742188 254.519531 L 11.53125 253.703125 C 11.109375 252.09375 10.691406 250.558594 10.035156 249.027344 C 9.410156 247.570312 9.019531 246.121094 8.617188 244.589844 C 8.109375 242.722656 7.472656 240.898438 6.820312 239.078125 C 6.390625 237.699219 6.117188 236.316406 5.871094 234.894531 L 5.578125 233.289062 L 5.4375 232.511719 C 5.179688 231.128906 4.882812 229.753906 4.546875 228.386719 L 4.167969 228.007812 C 4.042969 227.128906 3.972656 226.25 3.894531 225.367188 L 3.789062 224.597656 L 3.410156 224.21875 C 3.332031 223.597656 3.269531 222.972656 3.21875 222.351562 C 3.125 220.960938 3.125 220.960938 2.652344 219.675781 C 2.058594 216.882812 1.777344 214.082031 1.609375 211.234375 C 1.550781 210.171875 1.550781 210.171875 1.136719 209.070312 C 1.101562 208.546875 1.085938 208.019531 1.085938 207.492188 L 1.082031 206.519531 L 1.082031 205.457031 L 1.078125 204.332031 C 1.074219 203.101562 1.074219 201.871094 1.074219 200.636719 L 1.070312 198.0625 C 1.066406 196.257812 1.066406 194.453125 1.066406 192.648438 C 1.066406 190.351562 1.0625 188.054688 1.054688 185.757812 C 1.050781 183.980469 1.050781 182.203125 1.050781 180.425781 C 1.050781 179.582031 1.046875 178.734375 1.042969 177.890625 C 1.027344 172.148438 1.253906 166.621094 2.484375 160.992188 C 2.816406 159.421875 3.109375 157.878906 3.265625 156.28125 L 3.410156 154.910156 L 3.789062 154.53125 C 3.867188 153.964844 3.925781 153.394531 3.976562 152.824219 C 4.027344 152.257812 4.085938 151.6875 4.167969 151.121094 L 4.546875 150.742188 C 4.75 149.671875 4.9375 148.597656 5.113281 147.523438 C 5.289062 146.445312 5.476562 145.375 5.679688 144.304688 L 6.058594 143.925781 L 6.203125 142.789062 C 6.386719 141.382812 6.796875 140.128906 7.265625 138.796875 C 7.707031 137.464844 8.046875 136.109375 8.390625 134.75 C 8.710938 133.699219 8.710938 133.699219 9.257812 132.441406 C 9.886719 130.953125 10.320312 129.476562 10.746094 127.921875 C 11.386719 125.667969 12.132812 123.574219 13.160156 121.464844 C 13.890625 119.890625 14.472656 118.261719 15.070312 116.632812 C 15.515625 115.554688 16.0625 114.621094 16.664062 113.625 L 17.113281 112.179688 C 17.996094 109.363281 19.480469 106.769531 20.832031 104.15625 L 21.589844 104.15625 L 21.589844 102.640625 L 22.347656 102.640625 L 22.347656 101.125 L 23.105469 101.125 L 23.386719 100.179688 C 23.933594 98.65625 24.628906 97.253906 25.375 95.824219 L 26.132812 95.824219 L 26.464844 94.78125 C 26.800781 93.808594 27.160156 92.941406 27.648438 92.035156 L 28.40625 92.035156 L 29.164062 89.765625 L 29.921875 89.765625 L 30.132812 88.863281 C 31.066406 86.511719 32.644531 84.550781 34.230469 82.589844 C 34.917969 81.8125 34.917969 81.8125 35.222656 80.671875 L 35.980469 80.671875 L 36.3125 80.011719 L 37.496094 77.644531 L 38.253906 77.644531 L 39.769531 74.613281 L 40.527344 74.613281 L 40.808594 74 C 41.398438 72.878906 42.054688 71.851562 42.796875 70.828125 L 43.554688 70.828125 L 43.933594 69.691406 L 44.691406 69.691406 L 44.691406 68.933594 L 45.449219 68.933594 L 45.449219 68.175781 L 46.207031 68.175781 L 46.207031 67.417969 L 46.964844 67.417969 L 46.964844 66.660156 L 47.722656 66.660156 L 47.34375 65.523438 L 48.101562 65.523438 L 48.101562 64.765625 L 48.859375 64.765625 L 49.171875 64.082031 C 49.605469 63.273438 50.023438 62.75 50.664062 62.105469 L 51.300781 61.460938 L 51.984375 60.785156 L 52.6875 60.078125 C 53.179688 59.585938 53.671875 59.09375 54.164062 58.605469 C 54.917969 57.855469 55.671875 57.097656 56.421875 56.34375 L 57.855469 54.914062 L 58.539062 54.222656 C 59.085938 53.683594 59.652344 53.164062 60.222656 52.644531 L 60.980469 52.644531 L 60.980469 51.890625 L 61.734375 51.890625 L 61.734375 51.132812 L 62.492188 51.132812 L 62.492188 50.375 C 63.105469 49.855469 63.105469 49.855469 63.914062 49.285156 C 64.832031 48.621094 65.621094 48.003906 66.421875 47.203125 L 67.039062 46.585938 L 67.796875 46.585938 L 67.796875 45.828125 C 68.542969 45.304688 69.300781 44.800781 70.070312 44.3125 L 70.898438 43.652344 L 71.582031 43.175781 L 72.71875 43.175781 L 72.71875 42.421875 L 73.476562 42.421875 L 73.476562 41.664062 L 74.234375 41.664062 L 74.613281 40.527344 L 75.371094 40.527344 L 75.371094 39.769531 C 76.371094 39.09375 77.253906 38.636719 78.402344 38.253906 L 78.402344 37.496094 L 80.671875 36.738281 L 80.671875 35.980469 L 82.945312 35.222656 L 82.945312 34.464844 L 85.21875 33.707031 L 85.21875 32.953125 L 87.492188 32.195312 L 87.492188 31.4375 C 87.980469 31.183594 88.46875 30.929688 88.957031 30.679688 L 89.785156 30.253906 C 90.519531 29.921875 90.519531 29.921875 91.277344 29.921875 L 91.277344 29.164062 C 91.765625 28.910156 92.257812 28.65625 92.746094 28.40625 L 93.570312 27.980469 C 94.308594 27.648438 94.308594 27.648438 95.066406 27.648438 L 95.066406 26.890625 L 96.582031 26.890625 L 96.582031 26.132812 L 97.929688 25.507812 C 101.019531 24.0625 104.074219 22.585938 107.066406 20.949219 C 109.816406 19.457031 112.617188 18.328125 115.5625 17.296875 C 116.699219 16.894531 117.824219 16.460938 118.949219 16.027344 L 120.15625 15.5625 C 120.972656 15.242188 121.773438 14.890625 122.574219 14.535156 C 124.007812 13.949219 125.441406 13.566406 126.941406 13.195312 C 128.054688 12.890625 128.054688 12.890625 129.210938 12.347656 C 131.027344 11.542969 132.941406 11.082031 134.859375 10.582031 C 135.589844 10.386719 136.320312 10.195312 137.050781 10 L 138.085938 9.722656 C 138.796875 9.523438 139.503906 9.300781 140.199219 9.058594 C 141.582031 8.613281 142.96875 8.367188 144.398438 8.121094 C 146.300781 7.835938 146.300781 7.835938 148.089844 7.195312 C 148.972656 7.078125 149.855469 7.003906 150.742188 6.925781 L 151.5 6.816406 L 151.878906 6.4375 C 152.757812 6.316406 153.636719 6.246094 154.519531 6.167969 L 155.289062 6.058594 L 155.667969 5.679688 C 156.34375 5.601562 157.023438 5.542969 157.703125 5.492188 C 158.894531 5.402344 159.832031 5.304688 160.96875 4.921875 C 162.226562 4.808594 163.484375 4.730469 164.746094 4.652344 C 165.910156 4.585938 165.910156 4.585938 167.027344 4.167969 C 167.675781 4.113281 168.328125 4.082031 168.980469 4.058594 L 170.132812 4.015625 L 171.335938 3.976562 C 172.121094 3.949219 172.90625 3.921875 173.6875 3.894531 L 174.742188 3.859375 C 175.730469 3.8125 175.730469 3.8125 176.632812 3.597656 C 177.609375 3.414062 178.488281 3.359375 179.480469 3.359375 M 90.519531 84.460938 L 90.519531 85.21875 L 86.734375 85.21875 L 86.734375 85.976562 L 85.242188 85.953125 C 84.730469 85.941406 84.214844 85.949219 83.703125 85.976562 L 83.324219 86.355469 C 82.441406 86.496094 81.558594 86.621094 80.671875 86.734375 L 80.671875 87.492188 L 78.402344 87.492188 L 78.402344 88.25 L 74.613281 89.007812 L 74.613281 89.765625 L 73.097656 89.765625 L 73.097656 90.519531 L 71.582031 90.519531 L 71.582031 91.277344 L 70.949219 91.40625 C 69.917969 91.699219 69.035156 92.136719 68.082031 92.628906 L 67.054688 93.152344 L 66.28125 93.550781 L 66.28125 94.308594 L 64.007812 95.066406 L 64.007812 95.824219 L 61.734375 96.582031 L 61.734375 97.339844 L 60.980469 97.339844 L 60.980469 98.097656 L 60.101562 98.425781 C 59.027344 98.839844 59.027344 98.839844 57.949219 99.609375 L 57.949219 100.367188 L 57.191406 100.367188 L 57.191406 101.125 L 56.433594 101.125 L 56.433594 101.882812 L 55.675781 101.882812 L 55.675781 102.640625 L 54.917969 102.640625 L 54.917969 103.398438 L 54.160156 103.398438 L 54.160156 104.15625 L 53.402344 104.15625 L 53.402344 104.914062 L 52.644531 104.914062 L 52.644531 105.671875 L 51.890625 105.671875 L 51.890625 106.429688 L 51.132812 106.429688 C 50.304688 107.507812 50.304688 107.507812 49.617188 108.703125 L 49.617188 109.457031 L 48.859375 109.457031 L 48.859375 110.214844 L 48.101562 110.214844 L 47.34375 112.488281 L 46.585938 112.488281 L 45.828125 113.625 L 45.828125 114.761719 L 45.070312 114.761719 L 44.3125 117.035156 L 43.554688 117.035156 L 43.554688 118.546875 L 42.796875 118.546875 L 42.796875 120.0625 L 42.042969 120.0625 C 41.785156 120.535156 41.53125 121.007812 41.285156 121.484375 L 40.859375 122.285156 C 40.429688 123.179688 40.429688 123.179688 40.527344 124.609375 L 39.769531 124.609375 L 39.011719 128.394531 L 38.253906 128.394531 C 37.652344 129.976562 37.414062 131.25 37.496094 132.941406 L 36.738281 132.941406 C 36.609375 133.539062 36.484375 134.140625 36.359375 134.742188 L 36.148438 135.753906 C 35.9375 136.8125 35.9375 136.8125 35.980469 138.242188 L 35.222656 138.242188 C 34.570312 142.390625 34.570312 142.390625 34.464844 146.578125 L 33.707031 146.578125 C 33.007812 156.792969 32.445312 167.011719 32.574219 177.253906 L 33.707031 177.253906 L 33.75 177.957031 C 34.046875 182.039062 34.648438 186.082031 35.222656 190.132812 L 35.980469 190.132812 L 35.980469 193.164062 L 36.738281 193.164062 L 36.738281 195.433594 L 37.496094 195.433594 L 37.496094 197.707031 L 38.253906 197.707031 L 38.253906 199.980469 L 39.011719 199.980469 L 39.011719 201.496094 L 39.769531 201.496094 L 40.527344 205.28125 L 41.285156 205.28125 L 41.566406 206.230469 C 42.113281 207.753906 42.808594 209.152344 43.554688 210.585938 L 44.3125 210.585938 L 44.3125 212.101562 L 45.070312 212.101562 L 45.828125 214.371094 L 46.585938 214.371094 L 47.34375 216.644531 L 48.101562 216.644531 L 48.101562 217.402344 L 48.859375 217.402344 L 50.375 220.433594 L 51.132812 220.433594 L 51.132812 221.191406 L 51.890625 221.191406 L 51.890625 221.949219 L 52.644531 221.949219 L 52.644531 222.703125 L 53.402344 222.703125 L 53.402344 223.460938 L 54.160156 223.460938 L 54.160156 224.21875 L 54.917969 224.21875 L 54.917969 224.976562 L 55.675781 224.976562 L 55.675781 225.734375 L 56.433594 225.734375 L 56.433594 226.492188 L 57.191406 226.492188 L 57.191406 227.25 C 57.816406 227.636719 58.449219 228.015625 59.085938 228.386719 L 60.222656 229.523438 L 60.980469 229.523438 L 60.980469 230.28125 C 61.597656 230.679688 62.230469 231.058594 62.871094 231.417969 C 63.957031 232.117188 65.039062 232.820312 66.121094 233.527344 L 67.039062 234.066406 L 67.796875 234.066406 L 67.796875 234.824219 C 74.839844 238.203125 81.894531 241.179688 89.691406 242.261719 C 90.519531 242.398438 90.519531 242.398438 91.277344 242.777344 C 96.21875 243.476562 101.5 244.152344 106.429688 243.15625 C 107.351562 243.109375 108.273438 243.070312 109.199219 243.039062 C 116.175781 242.691406 122.933594 241.238281 129.53125 238.992188 L 130.589844 238.640625 C 134.050781 237.378906 137.28125 235.433594 140.515625 233.6875 L 140.515625 232.929688 L 141.226562 232.765625 C 142.042969 232.578125 142.042969 232.578125 142.789062 232.171875 L 142.789062 231.417969 L 143.617188 231.132812 C 144.789062 230.613281 145.632812 230.003906 146.578125 229.144531 L 146.578125 228.386719 L 147.355469 228.171875 C 148.925781 227.40625 150.011719 226.3125 151.121094 224.976562 C 151.671875 223.941406 151.671875 223.941406 151.878906 223.082031 L 152.636719 223.082031 C 153.238281 222.433594 153.238281 222.433594 153.820312 221.617188 L 154.4375 220.789062 L 154.910156 220.054688 L 154.910156 219.296875 L 155.667969 219.296875 C 156.296875 218.792969 156.296875 218.792969 156.800781 218.160156 L 156.800781 217.402344 L 157.558594 217.402344 L 157.9375 214.75 L 158.695312 214.75 C 159.589844 213.089844 160.476562 211.421875 161.363281 209.757812 C 161.648438 209.214844 161.9375 208.675781 162.226562 208.136719 C 163.019531 206.609375 163.589844 205.078125 164.105469 203.445312 C 164.378906 202.632812 164.378906 202.632812 164.945312 201.351562 C 165.582031 199.816406 165.996094 198.277344 166.40625 196.667969 C 166.648438 195.8125 166.648438 195.8125 167.027344 195.433594 C 167.125 194.316406 167.125 194.316406 167.027344 193.164062 C 165.949219 192.082031 164.667969 191.71875 163.242188 191.269531 C 162.039062 190.96875 160.832031 190.683594 159.621094 190.414062 L 158.695312 190.132812 L 158.316406 189.375 L 157.347656 189.445312 C 156.070312 189.375 155.289062 189.058594 154.140625 188.546875 C 152.839844 188.011719 151.484375 187.675781 150.128906 187.316406 L 148.316406 186.824219 L 147.425781 186.578125 C 142.304688 185.164062 142.304688 185.164062 140.160156 184.167969 C 138.925781 183.664062 138.050781 183.597656 136.730469 183.695312 L 136.730469 184.453125 L 135.972656 184.453125 L 135.859375 185.148438 C 135.484375 187.253906 134.914062 189.128906 134.082031 191.097656 C 133.25 193.109375 132.53125 195.171875 132.183594 197.328125 L 131.425781 197.328125 L 131.425781 198.84375 L 130.667969 198.84375 L 130.667969 200.359375 L 129.910156 200.359375 C 129.527344 200.984375 129.148438 201.617188 128.773438 202.253906 L 127.261719 203.011719 L 127.261719 203.765625 L 126.503906 203.765625 L 126.480469 204.546875 C 126.019531 205.984375 125.253906 206.691406 124.175781 207.714844 C 123.367188 208.402344 122.496094 208.921875 121.578125 209.449219 L 121.578125 210.207031 C 120.433594 210.800781 119.273438 211.296875 118.074219 211.769531 L 117.050781 212.175781 L 116.277344 212.480469 L 116.277344 213.234375 L 112.488281 213.992188 L 112.488281 214.75 L 109.457031 214.75 L 109.457031 215.507812 C 107.46875 215.464844 105.480469 215.417969 103.492188 215.367188 C 102.816406 215.351562 102.136719 215.335938 101.460938 215.320312 C 100.488281 215.296875 99.519531 215.273438 98.546875 215.25 L 97.625 215.230469 C 96.898438 215.207031 96.171875 215.175781 95.445312 215.128906 L 95.066406 214.75 L 93.882812 214.609375 C 92.625 214.40625 91.660156 214.105469 90.507812 213.578125 C 89.605469 213.164062 88.695312 212.785156 87.773438 212.40625 L 86.824219 212.011719 C 85.945312 211.660156 85.945312 211.660156 84.839844 211.722656 L 84.839844 210.585938 L 84.082031 210.585938 L 84.082031 209.828125 L 82.566406 210.207031 L 82.1875 209.070312 L 81.808594 208.3125 L 81.050781 208.3125 L 81.050781 207.554688 L 80.269531 207.53125 C 78.828125 207.070312 78.128906 206.277344 77.09375 205.203125 C 76.507812 204.523438 76.507812 204.523438 75.75 203.390625 L 75.75 202.253906 L 74.992188 202.253906 L 74.234375 200.738281 L 73.097656 200.738281 L 72.957031 200.074219 C 72.714844 199.207031 72.386719 198.503906 71.960938 197.707031 C 71.429688 196.703125 71.066406 195.792969 70.828125 194.675781 L 70.070312 194.675781 L 70.140625 193.894531 C 70.066406 192.722656 69.703125 191.925781 69.230469 190.863281 C 68.75 189.683594 68.449219 188.457031 68.152344 187.222656 C 68.085938 186.957031 68.023438 186.691406 67.957031 186.417969 C 67.410156 184.132812 67 181.847656 66.660156 179.527344 L 66.464844 178.347656 C 65.777344 173.71875 65.789062 169.113281 65.804688 164.441406 C 65.808594 163.054688 65.804688 161.667969 65.800781 160.277344 C 65.796875 155.648438 65.902344 151.148438 66.660156 146.578125 L 66.875 145.171875 C 67.203125 143.019531 67.203125 143.019531 67.417969 142.03125 L 67.796875 141.652344 L 67.9375 140.515625 C 68.34375 137.472656 69.675781 134.613281 70.792969 131.773438 C 71.121094 130.898438 71.386719 130.0625 71.582031 129.152344 L 72.339844 129.152344 L 73.097656 127.898438 L 73.523438 127.191406 C 73.9375 126.460938 73.9375 126.460938 73.855469 125.367188 L 74.613281 125.367188 C 75.214844 124.714844 75.214844 124.714844 75.796875 123.898438 L 76.414062 123.074219 L 76.886719 122.335938 L 76.886719 121.578125 L 77.644531 121.578125 L 77.644531 120.820312 L 78.402344 120.820312 L 78.402344 120.0625 L 79.160156 120.0625 L 79.160156 119.304688 L 79.988281 119.023438 C 81.160156 118.5 81.949219 117.84375 82.945312 117.035156 C 85.9375 115.003906 88.8125 113.585938 92.332031 112.722656 C 93.15625 112.566406 93.15625 112.566406 93.550781 112.109375 C 99.3125 110.765625 106.351562 110.488281 112.109375 111.992188 C 113 112.261719 113.886719 112.554688 114.761719 112.867188 L 116 113.296875 C 118.609375 114.289062 120.960938 115.601562 123.09375 117.414062 L 123.71875 118.25 L 124.230469 118.925781 L 124.988281 118.925781 L 124.988281 119.683594 L 125.746094 119.683594 L 125.746094 120.441406 L 126.644531 120.726562 L 127.640625 121.199219 C 128.136719 122.003906 128.136719 122.003906 128.394531 122.714844 L 129.152344 122.714844 L 129.152344 123.472656 L 129.910156 123.472656 L 130.667969 125.746094 L 131.425781 125.746094 L 132.941406 130.289062 L 133.699219 130.289062 L 133.699219 131.804688 L 134.457031 131.804688 L 134.457031 134.078125 L 135.214844 134.078125 L 135.214844 136.351562 C 137.722656 136.210938 140.003906 135.851562 142.414062 135.144531 C 143.683594 134.796875 144.953125 134.539062 146.246094 134.289062 C 150.191406 133.523438 154.09375 132.589844 157.984375 131.589844 C 160.230469 131.019531 162.496094 130.585938 164.773438 130.15625 L 165.890625 129.910156 L 166.269531 129.53125 C 166.449219 127.082031 165.964844 125.199219 165.136719 122.90625 L 164.804688 121.960938 C 164.542969 121.199219 164.269531 120.441406 164 119.683594 L 163.242188 119.683594 L 163.242188 118.171875 L 162.484375 118.171875 L 162.484375 116.65625 L 161.726562 116.65625 L 161.820312 115.875 C 161.6875 114.320312 161.039062 113.425781 160.210938 112.109375 L 159.453125 112.109375 L 159.289062 111.398438 C 159.101562 110.582031 159.101562 110.582031 158.695312 109.835938 L 157.9375 109.835938 L 157.808594 109.179688 C 157.535156 108.242188 157.152344 107.539062 156.636719 106.710938 L 156.140625 105.902344 L 155.667969 105.292969 L 154.910156 105.292969 L 154.910156 104.535156 L 154.152344 104.535156 L 154.027344 103.851562 C 153.738281 102.910156 153.402344 102.503906 152.710938 101.808594 L 152.0625 101.15625 L 151.382812 100.488281 L 150.714844 99.804688 L 150.058594 99.15625 L 149.46875 98.566406 C 148.765625 98.03125 148.195312 97.875 147.332031 97.71875 L 147.332031 96.960938 L 146.578125 96.582031 L 146.199219 95.445312 L 145.441406 95.445312 L 145.441406 94.6875 L 142.789062 94.308594 L 142.789062 93.550781 C 142.046875 93.171875 141.304688 92.792969 140.5625 92.414062 L 139.3125 91.777344 C 138.324219 91.226562 138.324219 91.226562 137.484375 91.277344 L 137.484375 90.519531 L 136.171875 89.980469 L 134.433594 89.265625 L 133.570312 88.914062 C 132.234375 88.367188 130.90625 87.808594 129.582031 87.242188 C 127.535156 86.367188 125.675781 85.898438 123.472656 85.597656 L 123.09375 85.21875 C 112.574219 82.515625 101.214844 83.632812 90.519531 84.460938 M 178.011719 85.597656 L 177.632812 87.871094 L 178.390625 87.871094 L 178.390625 90.140625 L 179.148438 90.140625 L 179.148438 92.414062 L 179.90625 92.414062 L 179.90625 94.6875 L 180.664062 94.6875 L 180.664062 96.960938 L 181.421875 96.960938 L 181.421875 99.234375 L 182.179688 99.234375 L 182.9375 103.019531 L 183.695312 103.019531 L 183.695312 105.292969 L 184.453125 105.292969 L 184.453125 107.566406 L 185.207031 107.566406 L 185.964844 111.351562 L 186.722656 111.351562 L 186.722656 113.625 L 187.480469 113.625 L 187.480469 115.898438 L 188.238281 115.898438 L 188.238281 118.171875 L 188.996094 118.171875 L 188.617188 120.441406 L 189.753906 120.441406 L 190.511719 124.230469 L 191.269531 124.230469 L 191.269531 126.503906 L 192.027344 126.503906 L 192.027344 128.773438 L 192.785156 128.773438 L 192.9375 129.585938 C 193.167969 130.695312 193.453125 131.777344 193.753906 132.871094 L 194.0625 133.992188 L 194.296875 134.835938 L 195.054688 134.835938 L 195.054688 137.109375 L 195.8125 137.109375 L 195.8125 139.378906 L 196.570312 139.378906 L 196.570312 141.652344 L 197.328125 141.652344 L 198.085938 145.441406 L 198.84375 145.441406 L 198.84375 147.710938 L 199.601562 147.710938 L 199.601562 149.984375 L 200.359375 149.984375 L 200.359375 152.257812 L 201.117188 152.257812 L 201.875 156.046875 L 202.632812 156.046875 L 202.632812 158.316406 L 203.390625 158.316406 L 203.390625 160.589844 L 204.144531 160.589844 L 204.144531 162.863281 L 204.902344 162.863281 L 205.660156 166.648438 L 206.417969 166.648438 L 206.417969 168.921875 L 207.175781 168.921875 L 207.175781 171.195312 L 207.933594 171.195312 L 207.933594 173.46875 L 208.691406 173.46875 L 209.449219 177.253906 L 210.207031 177.253906 L 210.207031 179.527344 L 210.964844 179.527344 L 210.964844 181.800781 L 211.722656 181.800781 L 211.722656 184.074219 L 212.480469 184.074219 L 213.234375 187.859375 L 213.992188 187.859375 L 213.992188 190.132812 L 214.75 190.132812 L 214.75 192.40625 L 215.507812 192.40625 L 215.507812 194.675781 L 216.265625 194.675781 L 216.265625 196.191406 L 217.023438 196.191406 L 217.023438 198.464844 L 217.78125 198.464844 L 217.78125 200.738281 L 218.539062 200.738281 L 218.539062 203.011719 L 219.296875 203.011719 L 219.296875 205.28125 L 220.054688 205.28125 L 220.054688 207.554688 L 220.8125 207.554688 L 220.8125 209.070312 L 221.570312 209.070312 L 221.570312 211.34375 L 222.328125 211.34375 L 222.328125 213.613281 L 223.082031 213.613281 L 223.082031 215.886719 L 223.839844 215.886719 L 223.839844 218.160156 L 224.597656 218.160156 L 224.597656 219.675781 L 225.355469 219.675781 L 225.355469 221.949219 L 226.113281 221.949219 L 226.113281 224.21875 L 226.871094 224.21875 L 226.871094 226.492188 L 227.628906 226.492188 L 228.386719 230.28125 L 229.144531 230.28125 L 229.144531 232.550781 L 229.902344 232.550781 L 229.902344 234.824219 L 230.660156 234.824219 L 230.660156 236.339844 L 231.417969 236.339844 L 231.417969 238.613281 L 232.171875 238.613281 L 232.550781 240.507812 L 266.261719 240.507812 L 268.914062 232.929688 C 269.742188 230.847656 269.742188 230.847656 270.089844 230.007812 C 270.644531 228.59375 271.09375 227.144531 271.566406 225.703125 C 271.898438 224.738281 272.257812 223.785156 272.652344 222.847656 C 273.511719 220.753906 274.203125 218.609375 274.898438 216.457031 C 275.46875 214.707031 276.125 213.03125 276.867188 211.34375 C 277.058594 210.816406 277.238281 210.289062 277.410156 209.757812 L 277.695312 208.886719 L 278.003906 207.933594 C 279.390625 203.660156 279.390625 203.660156 280.226562 201.636719 C 280.960938 199.847656 281.566406 198.027344 282.167969 196.191406 C 282.851562 194.109375 283.574219 192.0625 284.417969 190.039062 C 284.984375 188.570312 285.464844 187.082031 285.957031 185.585938 C 286.640625 183.503906 287.359375 181.460938 288.203125 179.433594 C 288.886719 177.671875 289.453125 175.871094 290.042969 174.074219 C 290.640625 172.253906 291.304688 170.453125 292.042969 168.679688 C 292.613281 167.238281 293.074219 165.757812 293.554688 164.28125 C 293.832031 163.457031 294.148438 162.644531 294.5 161.84375 C 295.164062 160.316406 295.671875 158.761719 296.183594 157.179688 C 296.988281 154.691406 297.839844 152.246094 298.832031 149.824219 C 299.40625 148.351562 299.882812 146.847656 300.371094 145.34375 C 300.652344 144.519531 300.964844 143.707031 301.320312 142.90625 C 301.722656 141.980469 302.082031 141.039062 302.394531 140.082031 L 302.695312 139.171875 L 303 138.242188 C 305.21875 131.480469 305.21875 131.480469 306.386719 128.679688 C 306.953125 127.214844 307.433594 125.722656 307.921875 124.230469 C 308.605469 122.144531 309.328125 120.101562 310.171875 118.074219 C 310.738281 116.609375 311.222656 115.117188 311.710938 113.625 C 312.394531 111.539062 313.117188 109.496094 313.960938 107.46875 C 314.640625 105.707031 315.207031 103.90625 315.796875 102.113281 C 316.296875 100.59375 316.820312 99.097656 317.441406 97.621094 C 318.238281 95.710938 318.757812 93.734375 319.304688 91.734375 C 319.59375 90.761719 319.910156 89.914062 320.351562 89.007812 L 320.800781 87.871094 L 320.421875 85.597656 L 287.851562 85.597656 L 287.09375 87.871094 L 286.714844 88.25 C 286.699219 89.007812 286.699219 89.765625 286.714844 90.519531 L 285.957031 90.519531 L 285.957031 92.792969 L 285.199219 92.792969 L 285.199219 95.066406 L 284.441406 95.066406 L 284.441406 97.339844 L 283.683594 97.339844 L 283.683594 99.609375 L 282.925781 99.609375 L 282.925781 101.882812 L 282.167969 101.882812 L 282.167969 104.15625 L 281.410156 104.15625 L 281.410156 106.429688 L 280.652344 106.429688 L 280.652344 108.703125 L 279.894531 108.703125 L 279.894531 110.972656 L 279.140625 110.972656 L 279.140625 113.246094 L 278.382812 113.246094 L 278.382812 115.519531 L 277.625 115.519531 L 277.625 117.792969 L 276.867188 117.792969 L 276.867188 120.0625 L 276.109375 120.0625 L 276.109375 122.335938 L 275.351562 122.335938 L 275.351562 124.609375 L 274.59375 124.609375 L 274.59375 126.882812 L 273.835938 126.882812 L 273.835938 129.152344 L 273.078125 129.152344 L 273.078125 131.425781 L 272.320312 131.425781 L 272.320312 133.699219 L 271.5625 133.699219 L 271.5625 135.972656 L 270.804688 135.972656 L 270.804688 138.242188 L 270.046875 138.242188 L 270.046875 140.515625 L 269.292969 140.515625 L 269.292969 142.789062 L 268.535156 142.789062 L 268.535156 145.0625 L 267.777344 145.0625 L 267.777344 147.332031 L 267.019531 147.332031 L 267.019531 149.605469 L 266.261719 149.605469 L 265.882812 151.027344 L 265.667969 151.824219 C 265.453125 152.746094 265.453125 152.746094 265.503906 154.152344 L 264.746094 154.152344 L 264.746094 156.421875 L 263.988281 156.421875 L 263.863281 157.132812 C 263.355469 159.847656 262.648438 162.375 261.527344 164.898438 C 260.910156 166.394531 260.515625 167.882812 260.105469 169.441406 C 259.746094 170.710938 259.207031 171.878906 258.6875 173.089844 C 258.488281 173.78125 258.300781 174.476562 258.117188 175.171875 C 257.683594 176.832031 257.089844 178.328125 256.414062 179.90625 C 256.09375 181.003906 255.804688 182.109375 255.523438 183.21875 C 255.277344 184.074219 255.277344 184.074219 254.898438 184.453125 C 254.882812 185.207031 254.882812 185.964844 254.898438 186.722656 L 254.140625 186.722656 L 254.140625 188.996094 L 253.382812 188.996094 L 253.382812 191.269531 L 252.625 191.269531 C 252.445312 191.988281 252.261719 192.703125 252.082031 193.421875 L 251.777344 194.632812 C 251.527344 195.652344 251.308594 196.679688 251.109375 197.707031 L 249.976562 197.707031 L 249.976562 196.191406 L 248.839844 196.191406 L 248.910156 195.410156 C 248.835938 194.257812 248.507812 193.476562 248.027344 192.4375 C 247.640625 191.496094 247.390625 190.550781 247.132812 189.5625 C 246.820312 188.363281 246.488281 187.304688 246 186.15625 C 245.375 184.703125 244.992188 183.269531 244.613281 181.742188 C 244.308594 180.628906 244.308594 180.628906 243.777344 179.484375 C 243.085938 177.886719 242.550781 176.253906 242.023438 174.597656 L 241.707031 173.625 C 241.375 172.601562 241.046875 171.578125 240.71875 170.554688 C 240.183594 168.890625 239.644531 167.222656 239.105469 165.554688 C 238.324219 163.136719 237.53125 160.726562 236.71875 158.316406 L 235.960938 158.316406 L 235.960938 156.046875 L 235.203125 156.046875 L 235.203125 153.773438 L 234.445312 153.773438 L 234.515625 152.992188 C 234.445312 151.839844 234.117188 151.054688 233.632812 150.015625 C 233.246094 149.074219 232.996094 148.128906 232.742188 147.144531 C 232.308594 145.484375 231.722656 143.984375 231.039062 142.410156 C 230.761719 141.554688 230.515625 140.691406 230.265625 139.824219 C 229.449219 137.132812 228.527344 134.472656 227.628906 131.804688 L 226.871094 131.804688 L 226.871094 129.53125 L 226.113281 129.53125 L 226.113281 127.261719 L 225.355469 127.261719 L 225.355469 124.988281 L 224.597656 124.988281 L 224.667969 124.207031 C 224.597656 123.054688 224.269531 122.269531 223.785156 121.234375 C 223.398438 120.289062 223.148438 119.34375 222.894531 118.359375 C 222.460938 116.699219 221.878906 115.199219 221.191406 113.625 C 220.785156 112.371094 220.414062 111.105469 220.054688 109.835938 L 219.296875 109.835938 L 219.34375 108.84375 C 219.292969 107.519531 219.007812 106.523438 218.539062 105.292969 L 217.78125 105.292969 L 217.78125 103.019531 L 217.023438 103.019531 L 217.09375 102.238281 C 217.019531 101.085938 216.695312 100.304688 216.210938 99.265625 C 215.824219 98.324219 215.574219 97.378906 215.320312 96.390625 C 215.003906 95.1875 214.675781 94.128906 214.183594 92.984375 C 213.546875 91.5 213.1875 90.03125 212.835938 88.457031 C 212.527344 87.460938 212.527344 87.460938 211.820312 86.6875 C 211.027344 85.917969 211.027344 85.917969 210.054688 85.78125 L 209.03125 85.769531 L 207.859375 85.746094 L 206.589844 85.746094 L 205.261719 85.726562 C 203.839844 85.707031 202.421875 85.699219 200.996094 85.691406 C 197.25 85.644531 193.5 85.613281 189.753906 85.597656 L 188.632812 85.589844 C 185.09375 85.574219 181.550781 85.570312 178.011719 85.597656 M 141.652344 279.140625 L 141.273438 279.515625 C 141.238281 280.164062 141.21875 280.808594 141.222656 281.457031 L 141.214844 282.730469 L 141.210938 284.136719 L 141.207031 285.613281 C 141.203125 286.949219 141.199219 288.289062 141.199219 289.625 C 141.195312 290.460938 141.195312 291.296875 141.195312 292.132812 C 141.1875 294.742188 141.183594 297.351562 141.183594 299.960938 C 141.179688 302.980469 141.175781 306 141.164062 309.015625 C 141.15625 311.347656 141.152344 313.675781 141.152344 316.007812 C 141.152344 317.398438 141.148438 318.792969 141.140625 320.183594 C 141.132812 321.738281 141.136719 323.289062 141.140625 324.84375 L 141.128906 326.25 C 141.128906 326.671875 141.132812 327.09375 141.132812 327.527344 L 141.132812 328.640625 L 141.273438 329.511719 C 142.285156 330.308594 142.285156 330.308594 143.136719 330.355469 L 143.96875 330.347656 L 144.929688 330.339844 L 145.980469 330.320312 L 147.089844 330.308594 C 148.300781 330.296875 149.511719 330.28125 150.722656 330.261719 C 151.5625 330.25 152.402344 330.242188 153.242188 330.234375 C 155.449219 330.207031 157.660156 330.175781 159.871094 330.148438 C 162.125 330.117188 164.378906 330.089844 166.632812 330.0625 C 171.058594 330.011719 175.480469 329.953125 179.90625 329.890625 L 179.90625 320.800781 L 177.449219 320.777344 C 174.777344 320.753906 172.101562 320.722656 169.425781 320.691406 C 167.804688 320.671875 166.183594 320.65625 164.5625 320.640625 C 162.996094 320.628906 161.433594 320.609375 159.867188 320.589844 C 159.269531 320.582031 158.671875 320.578125 158.074219 320.574219 C 157.238281 320.566406 156.40625 320.554688 155.570312 320.542969 L 154.125 320.527344 L 153.015625 320.421875 L 152.257812 319.664062 C 152.171875 318.535156 152.171875 318.535156 152.183594 317.105469 L 152.1875 316.34375 C 152.191406 315.542969 152.199219 314.738281 152.210938 313.9375 C 152.214844 313.390625 152.21875 312.847656 152.21875 312.304688 C 152.230469 310.96875 152.242188 309.636719 152.257812 308.300781 C 155.390625 307.992188 158.488281 307.871094 161.636719 307.886719 L 162.96875 307.886719 C 164.351562 307.890625 165.738281 307.894531 167.125 307.898438 C 168.070312 307.902344 169.015625 307.902344 169.960938 307.90625 C 172.265625 307.910156 174.570312 307.914062 176.875 307.921875 C 177.339844 307 177.304688 306.394531 177.304688 305.367188 L 177.308594 304.289062 L 177.300781 303.164062 L 177.308594 302.035156 L 177.304688 300.960938 L 177.304688 299.972656 L 177.253906 299.210938 L 176.875 298.832031 C 176.136719 298.792969 175.394531 298.773438 174.65625 298.769531 L 173.214844 298.753906 L 172.441406 298.746094 C 171.644531 298.738281 170.84375 298.730469 170.046875 298.722656 C 167.78125 298.695312 165.511719 298.671875 163.246094 298.652344 C 161.859375 298.640625 160.476562 298.625 159.089844 298.609375 C 158.558594 298.601562 158.03125 298.597656 157.503906 298.59375 C 156.761719 298.589844 156.023438 298.582031 155.285156 298.570312 L 154.007812 298.558594 L 153.015625 298.453125 L 152.257812 297.699219 C 152.171875 296.777344 152.171875 296.777344 152.183594 295.636719 L 152.191406 294.398438 L 152.210938 293.105469 L 152.21875 291.800781 C 152.230469 290.738281 152.242188 289.671875 152.257812 288.609375 L 153.261719 288.59375 C 156.378906 288.558594 159.492188 288.519531 162.609375 288.480469 C 164.210938 288.457031 165.8125 288.4375 167.414062 288.417969 C 168.957031 288.402344 170.503906 288.382812 172.046875 288.359375 C 172.640625 288.351562 173.230469 288.34375 173.820312 288.339844 C 174.644531 288.328125 175.46875 288.320312 176.292969 288.304688 C 176.761719 288.300781 177.234375 288.296875 177.71875 288.289062 L 178.769531 288.230469 L 179.148438 287.851562 C 179.179688 287.203125 179.191406 286.554688 179.1875 285.90625 L 179.183594 284.71875 L 179.171875 283.46875 L 179.167969 282.214844 C 179.164062 281.191406 179.15625 280.164062 179.148438 279.140625 C 174.265625 279.128906 169.382812 279.125 164.5 279.117188 C 162.234375 279.117188 159.96875 279.113281 157.703125 279.109375 C 155.515625 279.105469 153.332031 279.105469 151.144531 279.101562 C 150.308594 279.101562 149.472656 279.101562 148.636719 279.097656 C 147.46875 279.097656 146.304688 279.09375 145.136719 279.09375 L 144.078125 279.089844 C 143.269531 279.09375 142.460938 279.113281 141.652344 279.140625 M 196.949219 279.140625 L 196.570312 279.515625 C 196.535156 280.164062 196.519531 280.8125 196.523438 281.457031 L 196.519531 282.734375 L 196.523438 284.144531 L 196.519531 285.621094 C 196.519531 286.960938 196.519531 288.300781 196.519531 289.640625 C 196.519531 291.039062 196.519531 292.4375 196.519531 293.835938 C 196.519531 296.1875 196.519531 298.535156 196.523438 300.886719 C 196.523438 303.605469 196.523438 306.328125 196.519531 309.046875 C 196.519531 311.378906 196.519531 313.710938 196.519531 316.042969 C 196.519531 317.4375 196.519531 318.832031 196.519531 320.226562 C 196.519531 321.777344 196.519531 323.332031 196.523438 324.886719 L 196.519531 326.296875 L 196.523438 327.570312 L 196.523438 328.6875 L 196.570312 329.511719 L 196.949219 329.890625 C 198.453125 330.046875 199.964844 330.085938 201.472656 330.152344 L 202.761719 330.21875 L 203.992188 330.273438 L 205.125 330.328125 L 206.039062 330.269531 L 206.796875 329.511719 C 206.867188 328.566406 206.894531 327.660156 206.882812 326.714844 L 206.882812 325.839844 C 206.882812 324.886719 206.878906 323.929688 206.871094 322.976562 L 206.867188 320.992188 C 206.867188 319.25 206.859375 317.507812 206.847656 315.765625 C 206.839844 313.988281 206.839844 312.210938 206.835938 310.433594 C 206.828125 306.945312 206.8125 303.457031 206.796875 299.96875 L 207.554688 300.726562 L 208.691406 300.726562 L 208.691406 302.242188 L 209.449219 302.242188 L 210.207031 304.515625 L 210.964844 304.515625 L 210.964844 306.03125 L 211.722656 306.03125 L 212.480469 308.300781 L 213.234375 308.300781 L 213.992188 310.574219 L 214.75 310.574219 L 214.75 312.089844 L 215.507812 312.089844 L 216.265625 314.363281 L 217.023438 314.363281 L 217.355469 315.402344 C 217.691406 316.378906 218.050781 317.246094 218.539062 318.148438 L 219.296875 318.148438 L 220.054688 320.421875 L 220.8125 320.421875 L 220.8125 321.9375 L 221.570312 321.9375 L 222.328125 324.210938 L 223.082031 324.210938 L 223.839844 326.484375 L 224.597656 326.484375 L 224.597656 327.996094 L 225.355469 327.996094 L 225.710938 328.730469 C 226.050781 329.488281 226.050781 329.488281 226.492188 329.890625 L 236.71875 329.890625 L 236.71875 279.140625 L 227.25 279.140625 L 226.492188 279.894531 C 226.421875 280.851562 226.394531 281.804688 226.40625 282.761719 L 226.40625 283.660156 C 226.40625 284.640625 226.414062 285.617188 226.417969 286.597656 L 226.421875 288.632812 C 226.425781 290.421875 226.433594 292.207031 226.441406 293.992188 C 226.449219 295.816406 226.453125 297.640625 226.457031 299.460938 C 226.464844 303.039062 226.476562 306.617188 226.492188 310.195312 L 225.972656 309.628906 L 225.355469 309.058594 L 224.597656 309.058594 L 224.433594 308.351562 C 224.246094 307.53125 224.246094 307.53125 223.839844 306.789062 L 223.082031 306.789062 L 222.964844 306.171875 C 222.636719 305.035156 222.117188 304.046875 221.570312 303 L 220.8125 303 L 220.691406 302.382812 C 220.363281 301.25 219.84375 300.257812 219.296875 299.210938 L 218.539062 299.210938 L 218.421875 298.597656 C 218.089844 297.460938 217.570312 296.472656 217.023438 295.425781 L 216.265625 295.425781 L 216.121094 294.75 C 215.75 293.417969 214.976562 292.304688 214.253906 291.140625 L 213.359375 289.675781 L 212.917969 288.957031 C 212.246094 287.839844 211.605469 286.710938 210.964844 285.578125 L 210.207031 285.578125 L 209.828125 282.546875 L 209.070312 282.546875 L 209.070312 281.789062 L 207.933594 281.789062 L 207.816406 281.101562 C 207.601562 280.269531 207.601562 280.269531 207.105469 279.664062 C 206.429688 279.058594 206.429688 279.058594 205.425781 279.003906 L 204.25 279.015625 L 202.972656 279.019531 L 201.636719 279.042969 L 200.292969 279.050781 C 198.621094 279.0625 198.621094 279.0625 196.949219 279.140625 "
        fill-opacity="1" fill-rule="nonzero" />
</svg>