<svg xmlns="http://www.w3.org/2000/svg" xmlns:xlink="http://www.w3.org/1999/xlink" width="48" zoomAndPan="magnify" viewBox="0 0 375 374.999991" height="548" preserveAspectRatio="xMidYMid meet" version="1.0"><defs><g/><clipPath id="556708c7bf"><path d="M 3.050781 3.050781 L 371.949219 3.050781 L 371.949219 371.949219 L 3.050781 371.949219 Z M 3.050781 3.050781 " clip-rule="nonzero"/></clipPath><clipPath id="b3be90e983"><path d="M 187.5 3.050781 C 85.632812 3.050781 3.050781 85.632812 3.050781 187.5 C 3.050781 289.367188 85.632812 371.949219 187.5 371.949219 C 289.367188 371.949219 371.949219 289.367188 371.949219 187.5 C 371.949219 85.632812 289.367188 3.050781 187.5 3.050781 Z M 187.5 3.050781 " clip-rule="nonzero"/></clipPath><clipPath id="5a31036c58"><path d="M 0.0507812 0.0507812 L 368.949219 0.0507812 L 368.949219 368.949219 L 0.0507812 368.949219 Z M 0.0507812 0.0507812 " clip-rule="nonzero"/></clipPath><clipPath id="129f33414e"><path d="M 184.5 0.0507812 C 82.632812 0.0507812 0.0507812 82.632812 0.0507812 184.5 C 0.0507812 286.367188 82.632812 368.949219 184.5 368.949219 C 286.367188 368.949219 368.949219 286.367188 368.949219 184.5 C 368.949219 82.632812 286.367188 0.0507812 184.5 0.0507812 Z M 184.5 0.0507812 " clip-rule="nonzero"/></clipPath><clipPath id="1bfbbf7807"><rect x="0" width="369" y="0" height="369"/></clipPath></defs><g clip-path="url(#556708c7bf)"><g clip-path="url(#b3be90e983)"><g transform="matrix(1, 0, 0, 1, 3, 3)"><g clip-path="url(#1bfbbf7807)"><g clip-path="url(#5a31036c58)"><g clip-path="url(#129f33414e)"><path fill="currentColor" d="M 0.0507812 0.0507812 L 368.949219 0.0507812 L 368.949219 368.949219 L 0.0507812 368.949219 Z M 0.0507812 0.0507812 " fill-opacity="1" fill-rule="nonzero"/></g></g></g></g></g></g><g fill="#ffffff" fill-opacity="1"><g transform="translate(23.016989, 262.499983)"><g><path d="M 115.6875 -57.359375 L 146.21875 -47.671875 C 141.539062 -30.648438 133.753906 -18.003906 122.859375 -9.734375 C 111.972656 -1.472656 98.15625 2.65625 81.40625 2.65625 C 60.695312 2.65625 43.671875 -4.414062 30.328125 -18.5625 C 16.992188 -32.71875 10.328125 -52.070312 10.328125 -76.625 C 10.328125 -102.59375 17.03125 -122.757812 30.4375 -137.125 C 43.84375 -151.488281 61.472656 -158.671875 83.328125 -158.671875 C 102.410156 -158.671875 117.910156 -153.03125 129.828125 -141.75 C 136.929688 -135.082031 142.253906 -125.503906 145.796875 -113.015625 L 114.609375 -105.578125 C 112.765625 -113.660156 108.914062 -120.039062 103.0625 -124.71875 C 97.21875 -129.40625 90.109375 -131.75 81.734375 -131.75 C 70.171875 -131.75 60.785156 -127.597656 53.578125 -119.296875 C 46.378906 -110.992188 42.78125 -97.550781 42.78125 -78.96875 C 42.78125 -59.238281 46.328125 -45.1875 53.421875 -36.8125 C 60.515625 -28.445312 69.738281 -24.265625 81.09375 -24.265625 C 89.46875 -24.265625 96.671875 -26.925781 102.703125 -32.25 C 108.734375 -37.570312 113.0625 -45.941406 115.6875 -57.359375 Z M 115.6875 -57.359375 "/></g></g><g transform="translate(180.418899, 262.499983)"><g><path d="M 55.65625 0 L -0.109375 -156.015625 L 34.0625 -156.015625 L 73.53125 -40.546875 L 111.75 -156.015625 L 145.15625 -156.015625 L 89.28125 0 Z M 55.65625 0 "/></g></g></g></svg>